<svg width="150" height="365" viewBox="0 0 150 365" fill="none" xmlns="http://www.w3.org/2000/svg">
<g clip-path="url(#clip0_3412_6237)">
<path d="M113.8 51.5562C113.8 51.5562 108.59 60.0301 108.863 63.0367C109.138 66.0432 111.606 75.0649 104.201 88.7323C100.296 95.9397 96.2485 108.141 91.5883 108.415C83.0634 108.915 79.7976 107.321 79.7976 107.321C79.7976 107.321 78.1514 109.782 77.3293 118.256C77.3293 118.256 62.5227 113.882 55.1175 109.782C47.7124 105.682 37.0204 95.567 37.0204 95.567C37.0204 95.567 32.633 79.4387 38.9395 63.0367C45.2459 46.6346 76.5071 24.2194 92.1358 23.1259C107.766 22.0324 107.492 23.9455 112.154 29.6867C116.816 35.4279 113.8 51.5562 113.8 51.5562Z" fill="white" stroke="#313131" stroke-miterlimit="10" stroke-linecap="round"/>
<path d="M45.187 76.5977C45.187 76.5977 44.5976 83.3449 51.9551 81.8787C51.9551 81.8787 53.1321 87.1596 55.7798 90.3849" stroke="#313131" stroke-miterlimit="10" stroke-linecap="round"/>
<path d="M79.7955 107.321L65.2617 101.308L69.6491 115.797L77.3271 118.258C77.3271 118.258 77.6018 110.056 79.7955 107.321Z" fill="#313131" stroke="#313131" stroke-miterlimit="10" stroke-linecap="round"/>
<path d="M52.9283 109.236L86.1085 120.443L86.656 130.558L37.5742 114.156L52.9283 109.236Z" fill="white" stroke="#313131" stroke-miterlimit="10" stroke-linecap="round"/>
<path d="M103.104 29.9605C103.104 29.9605 93.2324 26.6801 79.7955 40.0756C66.3586 53.4711 46.3425 73.9732 46.3425 73.9732C46.3425 73.9732 42.2297 84.3603 48.5362 90.6491C54.8426 96.9361 60.6016 94.2034 60.6016 94.2034C60.6016 94.2034 61.1509 108.145 50.4552 114.979C39.7614 121.814 17.2749 114.979 10.1464 106.777C3.01586 98.5773 14.5338 79.9883 17.5496 73.7013C20.5655 67.4143 20.2908 66.3208 20.5655 65.5012C20.8402 64.6816 19.194 54.0207 22.4845 44.4514C25.7751 34.884 40.5816 10.2819 54.0186 2.89949C67.4555 -4.48096 95.4242 7.54722 104.199 13.2865C112.974 19.0277 121.474 21.4866 122.571 29.9624C123.668 38.4364 113.796 51.558 113.796 51.558C113.796 51.558 114.618 44.4514 110.78 38.7102C106.944 32.9671 103.104 29.9605 103.104 29.9605Z" fill="#313131" stroke="#313131" stroke-miterlimit="10" stroke-linecap="round"/>
<path d="M103.104 29.9606C103.104 29.9606 90.7637 13.2847 72.1172 9.7323" stroke="#6B6B6B" stroke-miterlimit="10" stroke-linecap="round"/>
<path d="M23.8594 62.2171C23.8594 62.2171 34.2785 47.4561 37.2963 38.7084" stroke="#6B6B6B" stroke-miterlimit="10" stroke-linecap="round"/>
<path d="M42.5105 76.9778C42.5105 76.9778 32.9135 91.4667 35.1072 103.221" stroke="#6B6B6B" stroke-miterlimit="10" stroke-linecap="round"/>
<path d="M105.305 51.8298C105.305 51.8298 97.9016 56.4776 97.9016 58.3907C97.9016 60.3038 100.095 73.6993 98.1763 75.8862C96.2573 78.0731 89.1268 75.0666 88.3047 74.7927" stroke="#313131" stroke-miterlimit="10" stroke-linecap="round"/>
<path d="M97.0703 86.2734C97.0703 86.2734 89.1177 88.4603 83.0859 83.5406" stroke="#313131" stroke-miterlimit="10" stroke-linecap="round"/>
<path d="M89.6754 49.0953C89.6754 49.0953 85.5627 44.4475 73.2227 46.9083" stroke="#313131" stroke-width="2" stroke-miterlimit="10" stroke-linecap="round"/>
<path d="M107.223 52.3757C107.223 52.3757 109.966 52.1018 111.61 54.5626" stroke="#313131" stroke-width="2" stroke-miterlimit="10" stroke-linecap="round"/>
<path d="M80.7598 57.2955C80.7598 58.7293 79.7163 59.8932 78.4287 59.8932C77.1411 59.8932 76.0977 58.7312 76.0977 57.2955C76.0977 55.8597 77.1411 54.6978 78.4287 54.6978C79.7163 54.6997 80.7598 55.8616 80.7598 57.2955Z" fill="#313131"/>
<path d="M103.791 60.3039C103.791 61.7378 102.748 62.9016 101.46 62.9016C100.172 62.9016 99.1289 61.7397 99.1289 60.3039C99.1289 58.87 100.172 57.7062 101.46 57.7062C102.748 57.7062 103.791 58.8681 103.791 60.3039Z" fill="#313131"/>
<path d="M76.0977 57.2954C76.0977 57.2954 77.6065 52.6477 84.7351 56.4758" stroke="#313131" stroke-miterlimit="10" stroke-linecap="round"/>
<path d="M101.465 57.7062C101.465 57.7062 105.03 57.8431 107.224 60.3039" stroke="#313131" stroke-miterlimit="10" stroke-linecap="round"/>
<path d="M104.469 363.737C104.469 363.737 112.422 404.468 117.082 433.446C121.742 462.423 123.388 466.25 120.922 471.989C118.455 477.728 86.0971 539.51 86.0971 539.51L56.4821 604.571C56.4821 604.571 49.6263 605.938 41.9483 602.93C34.2704 599.923 21.3828 595.549 21.3828 595.549C21.3828 595.549 23.0291 585.708 25.7702 584.069C28.5114 582.428 29.8829 582.156 30.7051 581.334C31.5273 580.515 47.98 541.423 47.98 541.423L73.2076 463.241L43.5926 357.448C43.5926 357.448 89.113 367.292 104.469 363.737Z" fill="#313131" stroke="#313131" stroke-miterlimit="10" stroke-linecap="round"/>
<path d="M10.6953 340.502C10.6953 340.502 24.405 376.313 27.1481 382.326C29.8893 388.341 34.0039 407.476 34.0039 407.476C34.0039 407.476 47.1661 467.069 47.7136 471.169C48.263 475.269 39.7609 491.398 38.6641 512.721C37.5672 534.043 46.0673 560.013 47.7136 569.582C49.3579 579.149 51.2789 598.558 50.7295 600.471C50.1801 602.384 49.3579 606.212 49.6326 609.493C49.9073 612.773 50.4548 615.506 50.4548 615.506C50.4548 615.506 60.3264 617.145 74.5855 612.773C88.8446 608.399 93.232 607.579 93.232 607.579C93.232 607.579 94.8782 603.753 94.0541 601.019C93.232 598.284 91.0383 596.099 90.7636 593.364C90.4889 590.632 90.4889 531.31 90.4889 531.31C90.4889 531.31 96.2478 488.119 99.8112 476.365C103.376 464.61 108.861 432.354 108.861 432.354L105.023 359.639C105.023 359.639 57.5853 355.539 37.0178 348.704C16.4543 341.868 10.6953 340.502 10.6953 340.502Z" fill="#313131" stroke="#313131" stroke-miterlimit="10" stroke-linecap="round"/>
<path d="M87.4735 126.73C87.4735 126.73 46.0678 113.882 40.3089 113.061C34.5499 112.241 20.0181 119.347 19.194 122.628C18.3718 125.908 13.435 170.193 18.6465 192.062C23.8561 213.932 33.7277 233.067 34.5499 237.988C35.3721 242.91 24.6782 269.699 18.0971 286.373C11.516 303.049 3.29056 320.544 1.64432 329.018C-9.096e-07 337.492 0 337.492 0 337.492C0 337.492 33.4531 365.922 76.505 365.649C119.555 365.375 132.992 364.829 132.992 364.829C132.992 364.829 139.573 307.968 133.814 291.021C128.055 274.073 118.733 244.275 118.733 244.275C118.733 244.275 102.829 167.46 98.9895 153.245C95.1515 139.032 87.4735 126.73 87.4735 126.73Z" fill="white" stroke="#313131" stroke-miterlimit="10" stroke-linecap="round"/>
<path d="M47.7661 201.529C45.7078 200.736 43.8193 199.78 42.2227 198.625" stroke="#313131" stroke-miterlimit="10" stroke-linecap="round"/>
<path d="M77.8783 205.186C77.8783 205.186 66.0991 205.838 55.1992 203.627" stroke="#313131" stroke-miterlimit="10" stroke-linecap="round"/>
<path d="M52.1943 252.557C50.7579 254.234 49.3463 255.856 47.9805 257.399" stroke="#313131" stroke-miterlimit="10" stroke-linecap="round"/>
<path d="M82.263 215.301C82.263 215.301 69.1236 232.403 56.3906 247.609" stroke="#313131" stroke-miterlimit="10" stroke-linecap="round"/>
<path d="M92.1286 224.869C92.1286 224.869 91.8539 226.236 80.8854 231.977C69.9168 237.718 68.5453 239.905 70.1916 240.725C71.8378 241.545 74.5789 241.273 79.241 239.631C83.9031 237.99 90.7571 234.712 90.7571 234.712C90.7571 234.712 90.4823 235.805 81.7075 240.725C72.9327 245.647 69.0947 247.286 71.5612 248.379C74.0296 249.473 79.5138 248.925 84.7234 246.192C86.6233 245.194 88.9277 243.979 91.0852 242.838C94.8412 240.85 98.1603 239.086 98.1603 239.086C98.1603 239.086 98.435 242.914 92.1286 245.92C85.8222 248.927 79.7885 251.935 83.0791 253.301C86.3696 254.668 89.6602 253.027 96.2413 250.294C102.822 247.56 105.838 244.827 105.838 244.827C105.838 244.827 100.902 252.755 96.2413 254.668C91.5792 256.581 97.8876 258.222 103.097 255.488C108.307 252.753 112.419 248.653 112.419 248.653L92.1286 224.869Z" fill="white" stroke="#313131" stroke-miterlimit="10" stroke-linecap="round"/>
<path d="M50.4531 127.004C50.4531 127.004 76.7776 119.076 86.6493 116.617C96.5209 114.156 98.9893 116.069 105.843 135.752C112.699 155.434 128.328 196.712 139.571 209.56C150.814 222.408 151.911 230.882 147.796 242.364C143.684 253.845 136.006 262.592 129.15 263.414C122.294 264.234 116.81 263.962 113.246 259.04C109.681 254.12 111.053 252.205 108.037 247.56C105.021 242.912 101.73 240.725 95.1494 233.892C88.5683 227.057 83.6334 215.029 74.5839 199.723C65.5344 184.414 51.8247 171.292 51.8247 171.292" fill="white"/>
<path d="M50.4531 127.004C50.4531 127.004 76.7776 119.076 86.6493 116.617C96.5209 114.156 98.9893 116.069 105.843 135.752C112.699 155.434 128.328 196.712 139.571 209.56C150.814 222.408 151.911 230.882 147.796 242.364C143.684 253.845 136.006 262.592 129.15 263.414C122.294 264.234 116.81 263.962 113.246 259.04C109.681 254.12 111.053 252.205 108.037 247.56C105.021 242.912 101.73 240.725 95.1494 233.892C88.5683 227.057 83.6334 215.029 74.5839 199.723C65.5344 184.414 51.8247 171.292 51.8247 171.292" stroke="#313131" stroke-miterlimit="10" stroke-linecap="round"/>
<path d="M127.691 254.59C128.674 254.362 129.624 253.947 130.517 253.299C137.645 248.105 148.066 234.984 146.42 225.69" stroke="#313131" stroke-miterlimit="10" stroke-linecap="round"/>
<path d="M112.426 248.651C112.426 248.651 116.842 252.612 121.889 254.181" stroke="#313131" stroke-miterlimit="10" stroke-linecap="round"/>
</g>
<defs>
<clipPath id="clip0_3412_6237">
<rect width="150" height="365" fill="white"/>
</clipPath>
</defs>
</svg>
