<svg width="243" height="349" viewBox="0 0 243 349" fill="none" xmlns="http://www.w3.org/2000/svg">
<g clip-path="url(#clip0_3426_6788)">
<path d="M21.4129 220.866C21.4129 220.866 0.360583 244.623 0.970012 248.276C1.57944 251.93 2.19082 266.55 6.15596 277.212C10.123 287.871 16.5297 290.613 16.5297 290.613C16.5297 290.613 22.9364 327.77 36.9726 335.995C51.0068 344.217 70.5355 350.31 73.5865 349.396C76.6375 348.481 81.8235 344.827 83.0442 342.696C84.265 340.565 92.1972 299.447 92.1972 299.447C92.1972 299.447 76.9423 181.273 75.4168 177.313C73.8913 173.353 61.6872 179.75 57.4155 182.186C53.1456 184.621 21.4129 220.866 21.4129 220.866Z" fill="#313131"/>
<path d="M72.841 350.431C67.5027 350.431 49.5535 344.483 36.4836 336.826C22.9373 328.889 16.4997 295.851 15.6646 291.258C14.033 290.376 8.72947 286.895 5.25226 277.547C2.13761 269.174 1.08848 258.642 0.461697 252.346C0.288126 250.606 0.151206 249.229 0.0181342 248.436C-0.618294 244.626 15.6762 225.887 20.6866 220.233C22.0193 218.712 52.5755 183.839 56.936 181.352C60.9262 179.075 70.6386 173.931 74.596 175.34C75.4233 175.634 76.0193 176.198 76.3163 176.969C77.8649 180.99 92.5297 294.496 93.1546 299.326C93.1681 299.428 93.1642 299.528 93.145 299.63C91.8142 306.522 85.1183 341.012 83.8821 343.174C82.5436 345.513 77.2053 349.317 73.8631 350.318C73.6066 350.393 73.2614 350.431 72.841 350.431ZM72.9336 177.005C69.8382 177.005 63.4102 179.872 57.8907 183.019C54.5022 184.952 30.9312 211.452 22.135 221.497C22.133 221.499 22.133 221.499 22.1311 221.501C12.0215 232.91 1.69791 245.986 1.91969 248.121C2.06241 248.971 2.20128 250.377 2.3787 252.154C2.99585 258.357 4.02956 268.733 7.05935 276.875C10.8124 286.961 16.8526 289.702 16.9124 289.729C17.2094 289.858 17.4254 290.131 17.4794 290.449C17.5431 290.815 23.971 327.26 37.4594 335.163C52.2824 343.849 70.924 349.157 73.3077 348.474C76.1253 347.628 81.1165 344.121 82.2061 342.217C83.0855 340.526 88.067 315.753 91.2203 299.416C86.9658 266.471 75.7319 180.821 74.515 177.658C74.4475 177.483 74.3279 177.286 73.948 177.15C73.6703 177.051 73.3289 177.005 72.9336 177.005Z" fill="#313131"/>
<path d="M79.6232 305.558C79.6232 305.558 78.115 354.102 79.9992 388.347C81.8835 422.592 83.3915 473.018 83.3915 473.018C83.3915 473.018 75.4748 500.113 76.6069 509.521C77.737 518.929 84.1457 554.302 84.1457 554.302C84.1457 554.302 80.3753 560.699 79.2451 562.958C78.115 565.216 81.5074 581.772 81.5074 581.772L117.321 583.653C117.321 583.653 125.614 566.719 127.122 559.945C128.63 553.172 123.73 554.675 123.73 548.278C123.73 541.881 121.467 501.616 123.353 481.671C125.238 461.727 125.616 455.329 125.616 455.329C125.616 455.329 130.516 419.579 132.778 406.032C135.041 392.484 139.187 348.831 139.187 348.831C139.187 348.831 153.512 472.639 154.267 480.541C155.021 488.444 155.775 510.27 158.413 523.817C161.051 537.364 164.822 556.932 164.822 560.695C164.822 564.459 164.446 569.726 164.446 569.726C164.446 569.726 161.053 571.232 161.429 574.996C161.805 578.759 164.068 588.543 164.068 588.543L204.782 585.909C204.782 585.909 205.912 576.501 206.29 569.351C206.666 562.201 204.782 550.159 204.406 546.395C204.028 542.632 205.914 517.042 205.536 506.506C205.16 495.97 201.765 473.767 201.011 463.983C200.257 454.199 201.387 333.779 201.387 333.779L200.633 305.931L79.6232 305.558Z" fill="#313131"/>
<path d="M164.069 589.508C163.623 589.508 163.232 589.201 163.13 588.761C163.037 588.358 160.85 578.873 160.472 575.092C160.162 571.983 162.104 569.983 163.523 569.128C163.616 567.701 163.861 563.689 163.861 560.696C163.861 556.805 159.544 534.648 157.469 524C155.533 514.059 154.621 499.945 153.957 489.64C153.718 485.945 153.514 482.755 153.309 480.628C152.684 474.079 142.579 386.553 139.271 357.922C137.925 371.475 135.341 396.552 133.732 406.186C131.499 419.564 126.624 455.097 126.575 455.455C126.575 455.455 126.182 462.039 124.317 481.758C122.873 497.044 123.877 524.391 124.415 539.082C124.579 543.552 124.697 546.782 124.697 548.272C124.697 550.889 125.576 551.948 126.506 553.07C127.721 554.535 128.978 556.05 128.068 560.147C126.552 566.954 118.533 583.374 118.192 584.071C118.022 584.417 117.644 584.641 117.274 584.608L81.4604 582.727C81.0226 582.704 80.6543 582.388 80.5675 581.961C79.7556 577.999 77.2002 564.892 78.3882 562.521C79.391 560.518 82.3649 555.434 83.1402 554.115C82.469 550.398 76.7161 518.456 75.6554 509.631C74.5446 500.396 81.7361 475.282 82.4304 472.891C82.3359 469.801 80.8548 421.31 79.0439 388.396C77.177 354.503 78.6504 306.01 78.6659 305.523C78.6832 305.003 79.1094 304.591 79.6302 304.591H79.6321L200.642 304.967C201.165 304.969 201.589 305.384 201.605 305.902L202.359 333.75C202.347 334.99 201.236 454.275 201.979 463.906C202.287 467.916 203.049 474.077 203.855 480.601C204.993 489.803 206.281 500.232 206.505 506.47C206.715 512.37 206.237 522.672 205.813 531.758C205.491 538.703 205.209 544.699 205.371 546.299C205.454 547.115 205.606 548.323 205.792 549.788C206.453 555.001 207.56 563.726 207.259 569.401C206.885 576.501 205.757 585.929 205.745 586.023C205.689 586.483 205.313 586.839 204.85 586.87L164.136 589.504C164.111 589.508 164.09 589.508 164.069 589.508ZM139.19 347.871C139.68 347.871 140.093 348.237 140.149 348.722C140.291 349.96 154.484 472.629 155.23 480.451C155.435 482.605 155.643 485.811 155.882 489.52C156.544 499.774 157.452 513.816 159.363 523.636C162.701 540.768 165.789 557.117 165.789 560.699C165.789 564.452 165.413 569.746 165.409 569.8C165.384 570.156 165.164 570.468 164.84 570.612C164.732 570.66 162.092 571.902 162.391 574.903C162.696 577.943 164.285 585.132 164.829 587.534L203.921 585.007C204.199 582.59 205.022 575.146 205.329 569.307C205.62 563.803 204.526 555.184 203.875 550.034C203.686 548.55 203.531 547.325 203.448 546.497C203.275 544.757 203.543 538.986 203.882 531.678C204.283 523.074 204.783 512.368 204.575 506.545C204.355 500.394 203.07 490.007 201.938 480.844C201.128 474.3 200.365 468.116 200.052 464.06C199.304 454.348 200.38 338.692 200.426 333.773L199.697 306.894L80.5636 306.526C80.3688 313.441 79.2483 357.089 80.9648 388.297C82.8278 422.161 84.3436 472.485 84.359 472.991C84.3629 473.091 84.3494 473.191 84.3205 473.287C84.2433 473.557 76.4712 500.301 77.5666 509.407C78.6813 518.679 85.0341 553.778 85.0977 554.131C85.1382 554.358 85.0958 554.591 84.98 554.791C84.9415 554.853 81.2136 561.185 80.1104 563.389C79.5299 564.592 80.7777 573.236 82.307 580.852L116.736 582.66C118.186 579.655 124.873 565.628 126.184 559.737C126.892 556.56 126.107 555.613 125.021 554.306C124.016 553.097 122.768 551.591 122.768 548.28C122.768 546.823 122.651 543.608 122.487 539.159C121.947 524.424 120.94 496.994 122.396 481.585C124.257 461.896 124.651 455.339 124.655 455.276C124.711 454.842 129.59 419.285 131.829 405.878C134.06 392.517 138.187 349.182 138.23 348.745C138.276 348.254 138.685 347.879 139.181 347.873C139.181 347.873 139.186 347.871 139.19 347.871Z" fill="#313131"/>
<path d="M221.26 275.689L191.969 294.573L208.445 361.882L235.296 326.858L221.26 275.689Z" fill="white"/>
<path d="M208.444 362.845C208.379 362.845 208.313 362.837 208.245 362.824C207.883 362.749 207.596 362.469 207.507 362.111L191.031 294.802C190.935 294.403 191.1 293.986 191.444 293.764L220.735 274.878C220.991 274.711 221.312 274.676 221.603 274.788C221.89 274.898 222.106 275.136 222.189 275.433L236.223 326.602C236.302 326.891 236.243 327.2 236.057 327.441L209.208 362.466C209.025 362.708 208.739 362.845 208.444 362.845ZM193.068 295.01L208.903 359.699L234.237 326.65L220.675 277.208L193.068 295.01Z" fill="#313131"/>
<path d="M221.26 275.689L184.953 294.573L202.648 360.97L208.445 361.882L191.969 294.573L221.26 275.689Z" fill="white"/>
<path d="M208.446 362.845C208.396 362.845 208.346 362.841 208.295 362.833L202.498 361.919C202.122 361.859 201.816 361.582 201.717 361.216L184.021 294.821C183.905 294.384 184.107 293.928 184.507 293.72L220.816 274.834C221.273 274.599 221.836 274.761 222.094 275.204C222.353 275.646 222.218 276.216 221.784 276.496L193.069 295.008L209.383 361.651C209.46 361.965 209.376 362.296 209.156 362.533C208.971 362.733 208.712 362.845 208.446 362.845ZM203.418 360.115L207.163 360.706L191.031 294.804C190.935 294.405 191.1 293.988 191.444 293.766L203.355 286.087L186.08 295.073L203.418 360.115Z" fill="#313131"/>
<path d="M225.834 287.263L204.172 305.841L216.071 348.481L220.952 347.873L235.293 326.858L225.834 287.263Z" fill="white"/>
<path d="M216.069 349.444C215.641 349.444 215.26 349.161 215.142 348.739L203.243 306.1C203.142 305.742 203.258 305.355 203.543 305.113L225.205 286.535C225.462 286.317 225.811 286.248 226.131 286.348C226.449 286.452 226.694 286.714 226.771 287.039L236.229 326.632C236.292 326.896 236.24 327.173 236.088 327.397L221.747 348.412C221.591 348.641 221.346 348.791 221.07 348.826L216.189 349.434C216.151 349.442 216.11 349.444 216.069 349.444ZM205.264 306.174L216.775 347.424L220.399 346.974L234.254 326.669L225.261 289.024L205.264 306.174Z" fill="#313131"/>
<path d="M220.952 347.873L209.358 305.232L225.834 290.004V287.263L204.172 305.841L216.071 348.481L220.952 347.873Z" fill="white"/>
<path d="M216.069 349.444C215.641 349.444 215.26 349.161 215.142 348.739L203.243 306.101C203.142 305.743 203.258 305.356 203.543 305.113L225.205 286.535C225.491 286.287 225.896 286.231 226.235 286.391C226.578 286.547 226.798 286.89 226.798 287.265V290.006C226.798 290.276 226.686 290.53 226.49 290.713L210.442 305.544L221.882 347.621C221.955 347.89 221.909 348.177 221.753 348.408C221.597 348.639 221.35 348.793 221.072 348.828L216.191 349.436C216.15 349.442 216.11 349.444 216.069 349.444ZM205.264 306.174L216.775 347.424L219.73 347.057L208.427 305.487C208.332 305.14 208.438 304.772 208.702 304.528L224.87 289.585V289.361L205.264 306.174Z" fill="#313131"/>
<path d="M205.388 190.712L210.269 227.261C210.269 227.261 209.049 241.881 211.49 252.237C213.932 262.592 218.813 279.953 221.559 288.482C224.306 297.01 227.357 311.019 227.357 311.019C227.357 311.019 223.696 314.98 223.696 320.156C223.696 325.335 223.391 333.557 223.391 333.557C223.391 333.557 217.289 338.126 218.51 340.257C219.731 342.39 221.866 343.303 223.391 342.694C224.917 342.086 229.189 334.47 229.189 334.47L227.359 346.044C227.359 346.044 224.003 348.175 224.917 349.394C225.833 350.612 227.359 351.831 228.273 350.917C229.189 350.002 237.426 342.388 238.342 341.78C239.258 341.171 242.002 328.074 242.002 326.247C242.002 324.421 237.426 304.318 237.426 304.318C237.426 304.318 241.393 245.231 240.477 236.398C239.561 227.566 235.9 217.21 235.595 216.296C235.291 215.381 233.154 185.838 233.154 185.838C233.154 185.838 202.337 186.45 205.388 190.712Z" fill="#C9C9C9"/>
<path d="M227.514 352.201C227.462 352.201 227.408 352.199 227.354 352.195C225.845 352.087 224.517 350.466 224.144 349.973C223.842 349.571 223.732 349.088 223.826 348.575C224.06 347.299 225.62 346.065 226.472 345.478L227.46 339.231C226.133 341.279 224.684 343.216 223.749 343.589C221.686 344.415 219.074 343.187 217.672 340.736C216.251 338.255 220.563 334.528 222.443 333.07C222.507 331.276 222.731 324.567 222.731 320.158C222.731 315.567 225.358 311.932 226.312 310.76C225.759 308.263 223.063 296.294 220.642 288.778C217.95 280.417 213.063 263.108 210.554 252.458C208.187 242.42 209.188 228.734 209.302 227.288L204.461 191.049C204.149 190.493 204.128 189.894 204.404 189.345C206.242 185.691 226.86 185.004 233.135 184.879C233.728 184.898 234.079 185.264 234.115 185.772C234.952 197.333 236.283 214.937 236.526 216.049L236.588 216.225C238.071 220.566 240.674 228.946 241.438 236.302C242.337 244.986 238.661 300.321 238.399 304.247C238.996 306.873 242.969 324.407 242.969 326.251C242.969 327.077 240.489 341.514 238.877 342.584C238.082 343.112 229.946 350.612 228.954 351.602C228.559 351.993 228.063 352.201 227.514 352.201ZM229.188 333.509C229.294 333.509 229.4 333.527 229.504 333.561C229.946 333.713 230.214 334.16 230.14 334.622L228.31 346.196C228.268 346.469 228.11 346.71 227.876 346.858C226.804 347.542 225.759 348.547 225.724 348.928C226.374 349.729 227.128 350.25 227.491 350.274C228.295 349.532 236.252 342.147 237.691 341.064C238.535 339.641 241.039 328.113 241.039 326.249C241.039 324.998 238.246 312.265 236.485 304.534C236.464 304.443 236.458 304.349 236.464 304.256C236.503 303.665 240.416 245.15 239.519 236.5C238.777 229.331 236.221 221.109 234.763 216.844L234.68 216.604C234.379 215.705 232.937 196.174 232.258 186.823C220.208 187.114 207.028 188.462 206.128 190.208C206.218 190.335 206.324 190.431 206.346 190.587L211.227 227.134C211.237 227.204 211.238 227.273 211.231 227.34C211.219 227.485 210.052 241.931 212.43 252.015C214.93 262.623 219.797 279.861 222.478 288.185C225.207 296.66 228.268 310.673 228.299 310.813C228.364 311.12 228.277 311.439 228.065 311.67C228.031 311.705 224.657 315.432 224.657 320.154C224.657 325.291 224.355 333.507 224.351 333.59C224.341 333.879 224.198 334.15 223.967 334.325C221.18 336.412 218.933 339.063 219.344 339.778C220.363 341.558 222.011 342.201 223.032 341.799C223.805 341.416 226.405 337.454 228.345 333.998C228.522 333.69 228.846 333.509 229.188 333.509Z" fill="#313131"/>
<path d="M122.099 71.3214C122.099 71.3214 122.098 88.9867 121.794 90.8137C121.489 92.6407 109.285 103.911 109.285 103.911C109.285 103.911 76.6382 114.266 72.3664 117.922C68.0946 121.576 67.4852 133.454 68.0946 141.07C68.7041 148.684 77.2476 274.776 77.2476 274.776L76.9429 307.974L188.034 308.948L184.953 294.573L201.077 286.493L198.682 200.461V194.978C198.682 194.978 208.14 197.11 216.074 196.501C224.006 195.893 239.568 191.324 239.568 191.324C239.568 191.324 230.11 138.633 226.752 127.365C223.397 116.095 220.041 113.049 210.581 110.614C201.124 108.177 181.902 105.437 177.323 103.914C172.747 102.392 159.017 96.3004 158.101 95.0817C157.185 93.8631 157.492 71.3253 157.492 71.3253H122.099V71.3214Z" fill="white"/>
<path d="M188.031 309.911C188.029 309.911 188.025 309.911 188.023 309.911L76.9317 308.936C76.6752 308.934 76.4322 308.831 76.2509 308.65C76.0716 308.467 75.9732 308.22 75.9751 307.966L76.2798 274.767C76.1969 273.581 67.7324 148.669 67.1288 141.147C66.5714 134.189 66.9147 121.316 71.7342 117.192C75.9713 113.567 105.748 104.028 108.784 103.062C114.44 97.8289 120.461 91.7839 120.847 90.6172C121.054 89.3736 121.131 78.3925 121.131 71.3233C121.131 70.792 121.563 70.3607 122.095 70.3607H157.488C157.747 70.3607 157.993 70.4647 158.175 70.6475C158.356 70.8304 158.456 71.0788 158.452 71.3368C158.312 81.6729 158.433 93.3414 158.935 94.6081C159.876 95.5399 172.687 101.356 177.624 103C179.819 103.73 185.757 104.798 192.046 105.928C198.586 107.104 205.996 108.438 210.819 109.68C220.859 112.268 224.325 115.847 227.673 127.089C231.005 138.28 240.124 189.001 240.511 191.153C240.598 191.636 240.305 192.108 239.834 192.247C239.194 192.435 224.086 196.852 216.144 197.46C209.722 197.955 202.447 196.713 199.643 196.16V200.459L202.038 286.466C202.048 286.837 201.841 287.184 201.506 287.353L186.046 295.098L188.972 308.746C189.034 309.031 188.962 309.329 188.775 309.556C188.596 309.782 188.32 309.911 188.031 309.911ZM77.9134 307.021L186.837 307.974L184.008 294.775C183.915 294.346 184.126 293.91 184.519 293.712L200.096 285.908L197.718 200.484V194.976C197.718 194.684 197.851 194.408 198.081 194.224C198.308 194.041 198.609 193.97 198.895 194.037C198.989 194.058 208.316 196.132 215.999 195.539C222.703 195.025 235.142 191.58 238.463 190.637C237.225 183.785 228.897 137.942 225.827 127.636C222.462 116.334 219.173 113.817 210.341 111.544C205.589 110.319 198.214 108.993 191.709 107.822C185.074 106.629 179.345 105.599 177.019 104.823C172.975 103.477 158.53 97.2495 157.332 95.6535C156.441 94.4676 156.391 82.5143 156.516 72.282H123.063C123.059 76.2382 123.023 89.3062 122.747 90.9695C122.423 92.912 113.683 101.159 109.941 104.615C109.837 104.711 109.714 104.783 109.579 104.825C100.549 107.688 76.3782 115.754 72.9955 118.648C69.4758 121.659 68.3515 132.164 69.0573 140.987C69.661 148.52 78.1255 273.446 78.2123 274.705L77.9134 307.021Z" fill="#313131"/>
<path d="M108.061 193.198C107.855 193.198 107.648 193.132 107.473 192.996C107.051 192.67 106.973 192.066 107.299 191.646C117.447 178.538 126.275 150.504 126.363 150.222C126.523 149.714 127.063 149.435 127.571 149.589C128.08 149.749 128.363 150.288 128.205 150.794C127.841 151.957 119.185 179.439 108.825 192.822C108.636 193.069 108.35 193.198 108.061 193.198Z" fill="#313131"/>
<path d="M112.943 169.137C112.775 169.137 112.606 169.093 112.451 169.002C111.994 168.729 111.844 168.138 112.116 167.682L121.574 151.843C121.847 151.387 122.44 151.237 122.897 151.508C123.354 151.782 123.504 152.373 123.232 152.829L113.774 168.667C113.593 168.97 113.273 169.137 112.943 169.137Z" fill="#313131"/>
<path d="M173.968 185.888C173.682 185.888 173.399 185.763 173.21 185.52C161.974 171.272 153.941 152.902 153.86 152.717C153.65 152.23 153.874 151.662 154.362 151.451C154.852 151.241 155.417 151.464 155.631 151.951C155.71 152.132 163.646 170.281 174.725 184.329C175.053 184.746 174.982 185.351 174.563 185.68C174.388 185.821 174.176 185.888 173.968 185.888Z" fill="#313131"/>
<path d="M189.226 193.808C188.938 193.808 188.655 193.681 188.464 193.437C184.246 188.025 166.987 166.864 166.814 166.652C166.478 166.24 166.54 165.633 166.953 165.297C167.367 164.962 167.975 165.025 168.31 165.435C168.484 165.649 185.756 186.826 189.988 192.255C190.313 192.674 190.238 193.279 189.82 193.606C189.64 193.743 189.432 193.808 189.226 193.808Z" fill="#313131"/>
<path d="M194.107 292.186C193.81 292.186 193.516 292.049 193.327 291.791C187.505 283.836 170.42 231.021 169.695 228.777C169.533 228.27 169.81 227.728 170.318 227.566C170.823 227.404 171.367 227.679 171.531 228.186C171.706 228.732 189.245 282.949 194.886 290.655C195.2 291.085 195.105 291.687 194.675 291.999C194.504 292.126 194.303 292.186 194.107 292.186Z" fill="#313131"/>
<path d="M161.762 246.804C161.342 246.804 160.956 246.527 160.837 246.105L153.209 219.303C153.063 218.791 153.362 218.259 153.873 218.113C154.388 217.969 154.918 218.265 155.064 218.777L162.692 245.579C162.839 246.091 162.54 246.623 162.029 246.769C161.94 246.792 161.851 246.804 161.762 246.804Z" fill="#313131"/>
<path d="M198.68 195.939C198.667 195.939 198.653 195.939 198.64 195.937C198.107 195.916 197.693 195.468 197.716 194.936L199.546 149.25C199.567 148.719 200.013 148.261 200.549 148.328C201.081 148.349 201.496 148.798 201.473 149.327L199.642 195.013C199.623 195.533 199.195 195.939 198.68 195.939Z" fill="#313131"/>
<path d="M177.319 103.911C172.743 102.388 159.014 96.2965 158.097 95.0779C157.181 93.8593 157.488 71.3214 157.488 71.3214H122.095C122.095 71.3214 122.095 88.9867 121.79 90.8137C121.485 92.6407 109.281 103.911 109.281 103.911C109.281 103.911 105.966 104.962 101.316 106.511L139.182 129.19L139.791 150.205H145.589L146.198 128.886L178.446 104.236C178.014 104.122 177.628 104.013 177.319 103.911Z" fill="white"/>
<path d="M145.588 151.168H139.791C139.268 151.168 138.842 150.754 138.826 150.234L138.232 129.744L100.82 107.335C100.498 107.141 100.317 106.779 100.357 106.406C100.4 106.032 100.654 105.716 101.011 105.599C104.99 104.273 107.992 103.312 108.783 103.06C114.44 97.8271 120.461 91.7821 120.846 90.6154C121.053 89.3718 121.13 78.3907 121.13 71.3215C121.13 70.7901 121.562 70.3589 122.094 70.3589H157.487C157.746 70.3589 157.992 70.4628 158.174 70.6457C158.355 70.8286 158.455 71.077 158.452 71.335C158.311 81.6711 158.432 93.3395 158.934 94.6063C159.877 95.5381 172.686 101.354 177.623 102.996C177.917 103.094 178.281 103.196 178.692 103.304C179.049 103.397 179.319 103.685 179.392 104.045C179.465 104.407 179.324 104.775 179.033 105L147.15 129.373L146.552 150.234C146.537 150.754 146.111 151.168 145.588 151.168ZM140.728 149.242H144.651L145.233 128.859C145.241 128.568 145.382 128.299 145.611 128.121L176.378 104.604C171.641 102.904 158.467 97.1764 157.325 95.6555C156.434 94.4696 156.384 82.5163 156.509 72.284H123.056C123.053 76.2403 123.016 89.3083 122.74 90.9716C122.416 92.9141 113.676 101.161 109.934 104.617C109.83 104.713 109.707 104.785 109.572 104.827C109.572 104.827 107.179 105.585 103.613 106.762L139.677 128.362C139.958 128.531 140.134 128.832 140.145 129.159L140.728 149.242Z" fill="#313131"/>
<path d="M141.621 124.011L171.449 101.612C165.761 99.2171 158.743 95.9366 158.097 95.0761C157.181 93.8574 157.488 71.3196 157.488 71.3196H122.095C122.095 71.3196 122.095 88.9849 121.79 90.8118C121.485 92.6388 109.281 103.909 109.281 103.909L141.621 124.011Z" fill="#C9C9C9"/>
<path d="M141.621 124.974C141.446 124.974 141.269 124.926 141.112 124.828L108.77 104.727C108.516 104.569 108.348 104.3 108.321 104.001C108.292 103.703 108.406 103.406 108.626 103.202C114.326 97.9388 120.455 91.7899 120.847 90.6136C121.053 89.3699 121.13 78.3888 121.13 71.3196C121.13 70.7883 121.562 70.3571 122.095 70.3571H157.488C157.746 70.3571 157.993 70.461 158.174 70.6439C158.356 70.8268 158.456 71.0751 158.452 71.3331C158.311 81.6693 158.433 93.3377 158.934 94.6044C159.455 95.0992 164.932 97.8233 171.825 100.723C172.143 100.857 172.365 101.15 172.407 101.491C172.45 101.833 172.305 102.172 172.031 102.378L142.204 124.778C142.03 124.91 141.826 124.974 141.621 124.974ZM110.861 103.759L141.571 122.847L169.539 101.843C166.134 100.372 158.244 96.8761 157.328 95.6556C156.437 94.4697 156.387 82.5164 156.512 72.2841H123.059C123.055 76.2403 123.018 89.3083 122.743 90.9717C122.442 92.7678 114.947 99.9545 110.861 103.759Z" fill="#313131"/>
<path d="M136.432 85.3309L121.786 90.8137L120.949 75.191L136.432 85.3309Z" fill="#313131"/>
<path d="M121.787 91.7763C121.602 91.7763 121.419 91.7224 121.259 91.6185C121.002 91.451 120.84 91.1699 120.823 90.8638L119.986 75.2411C119.966 74.8773 120.154 74.5365 120.468 74.3556C120.784 74.1765 121.174 74.188 121.477 74.3863L136.957 84.5281C137.26 84.7264 137.426 85.0787 137.387 85.4387C137.347 85.8007 137.108 86.1067 136.768 86.2338L122.123 91.7166C122.015 91.7551 121.901 91.7763 121.787 91.7763ZM122.015 77.0392L122.678 89.4508L134.313 85.0941L122.015 77.0392Z" fill="#313131"/>
<path d="M81.2153 113.047C81.2153 113.047 86.4031 121.576 89.7588 153.555C93.1146 185.536 80.3011 226.957 78.1643 232.742C76.0274 238.529 75.1133 241.879 75.1133 241.879L74.8086 252.843C74.8086 252.843 100.437 208.68 104.404 174.872C108.372 141.064 96.1656 107.867 96.1656 107.867L81.2153 113.047Z" fill="#313131"/>
<path d="M74.8084 253.808C74.7216 253.808 74.6328 253.796 74.5461 253.771C74.1218 253.65 73.8325 253.257 73.8441 252.818L74.1488 241.854C74.1507 241.777 74.1623 241.702 74.1816 241.627C74.2201 241.49 75.1323 238.171 77.2576 232.411C80.3163 224.12 91.9881 184.049 88.7982 153.657C85.5197 122.425 80.4379 113.629 80.3877 113.544C80.2392 113.296 80.2084 112.992 80.3086 112.72C80.407 112.449 80.623 112.235 80.8968 112.139L95.8472 106.962C96.3466 106.787 96.8866 107.047 97.0679 107.54C97.1914 107.875 109.307 141.343 105.359 174.99C101.415 208.607 75.8961 252.887 75.6396 253.33C75.4679 253.63 75.1459 253.808 74.8084 253.808ZM76.0735 242.026L75.8807 248.941C81.8862 237.937 100.181 202.589 103.446 174.764C106.981 144.632 97.444 114.601 95.5714 109.095L82.5728 113.596C84.0038 116.696 87.9631 127.236 90.7171 153.457C93.9456 184.217 82.1581 224.705 79.0686 233.077C77.1843 238.183 76.249 241.41 76.0735 242.026Z" fill="#313131"/>
<path d="M129.42 2.18313C129.42 2.18313 111.114 8.57849 108.673 13.453C106.231 18.3256 110.503 52.7436 114.47 64.0116C118.437 75.2815 132.471 84.1142 136.438 85.3309C140.405 86.5495 143.761 87.7681 148.338 84.7225C152.914 81.6769 164.509 69.7986 166.95 63.7074C169.392 57.6162 171.222 15.28 169.697 11.0158C168.171 6.75153 144.982 0.964478 138.88 0.964478C132.776 0.964478 129.42 2.18313 129.42 2.18313Z" fill="#C9C9C9"/>
<path d="M142.563 87.5968C140.513 87.5968 138.592 87.0038 136.615 86.3916L136.154 86.2492C132.133 85.0132 117.694 76.0708 113.561 64.3274C109.538 52.9015 105.195 18.2448 107.81 13.0199C110.35 7.94899 127.159 1.95212 129.096 1.27446C129.308 1.19746 132.745 0 138.879 0C144.615 0 168.77 5.56756 170.602 10.6904C172.151 15.0162 170.535 57.3448 167.845 64.0617C165.301 70.407 153.409 82.5009 148.873 85.5195C146.551 87.0693 144.499 87.5968 142.563 87.5968ZM138.879 1.92707C133.051 1.92707 129.78 3.07642 129.748 3.08797C129.746 3.08989 129.742 3.08988 129.738 3.08988C124.749 4.83407 111.393 10.1725 109.534 13.8804C107.353 18.2351 111.341 52.2181 115.378 63.6901C119.225 74.6192 133.051 83.2825 136.719 84.4087L137.184 84.5512C140.873 85.6908 143.786 86.5918 147.801 83.9178C152.065 81.0801 163.673 69.2808 166.051 63.3455C168.435 57.3968 170.157 15.1722 168.784 11.3354C167.582 7.97787 145.658 1.92707 138.879 1.92707Z" fill="#313131"/>
<path d="M138.877 0.964355C132.775 0.964355 129.42 2.183 129.42 2.183C129.42 2.183 111.114 8.57837 108.672 13.4529C107.338 16.1173 108.011 27.6067 109.542 39.3194L109.893 39.3425C109.893 39.3425 116.606 32.6429 116.606 30.2057C116.606 27.7684 114.165 23.2 114.165 18.9358C114.165 14.6715 121.792 11.0176 125.455 11.0176C129.115 11.0176 135.828 14.6715 140.71 14.3673C145.591 14.0632 148.642 11.3217 154.134 10.7134C159.627 10.105 164.813 16.8046 163.899 21.6772C162.983 26.5498 160.238 29.5954 162.068 32.9471C163.899 36.2969 166.036 41.7797 166.036 41.7797C166.036 41.7797 168.17 42.0839 169.087 41.4755C169.195 41.4024 169.372 41.1444 169.594 40.7613C170.354 27.599 170.546 13.3951 169.696 11.0195C168.169 6.75141 144.981 0.964355 138.877 0.964355Z" fill="#313131"/>
<path d="M167.196 42.8194C166.586 42.8213 166.079 42.7558 165.898 42.7308C165.553 42.6808 165.261 42.4517 165.136 42.1263C165.115 42.0724 163.001 36.6627 161.221 33.4053C159.817 30.8372 160.704 28.4192 161.643 25.8568C162.137 24.5092 162.648 23.1153 162.951 21.4982C163.36 19.317 162.34 16.5217 160.347 14.3809C158.533 12.4288 156.311 11.4431 154.242 11.6683C151.651 11.9552 149.598 12.7541 147.609 13.5242C145.534 14.3308 143.387 15.1644 140.77 15.3281C137.86 15.511 134.42 14.3982 131.382 13.4183C129.087 12.679 126.921 11.9783 125.454 11.9783C122.229 11.9783 115.128 15.3415 115.128 18.9339C115.128 21.2152 115.888 23.639 116.557 25.7778C117.099 27.5105 117.568 29.0063 117.568 30.2019C117.568 32.9009 111.74 38.8535 110.573 40.0202C110.376 40.2165 110.112 40.309 109.828 40.3013L109.477 40.2781C109.018 40.2473 108.642 39.8989 108.585 39.4426C108.1 35.7386 105.786 17.0549 107.807 13.0217C110.349 7.94697 127.188 1.94241 129.099 1.27438C129.23 1.22625 132.674 0.00183105 138.877 0.00183105C144.612 0.00183105 168.768 5.56942 170.6 10.6923C171.547 13.3355 171.282 28.1843 170.551 40.8133C170.544 40.9635 170.499 41.1098 170.424 41.2388C170.083 41.8279 169.865 42.109 169.614 42.2745C168.962 42.7116 167.99 42.8194 167.196 42.8194ZM166.715 40.8769C167.437 40.9173 168.204 40.8672 168.517 40.6921C168.509 40.6882 168.553 40.6189 168.644 40.4687C169.448 26.4074 169.514 13.3682 168.789 11.3391C167.585 7.97586 145.661 1.92699 138.88 1.92699C133.052 1.92699 129.781 3.07634 129.749 3.08789C124.75 4.83594 111.394 10.1744 109.537 13.8823C108.49 15.973 108.806 25.5892 110.291 37.5502C113.034 34.6567 115.643 31.3146 115.643 30.2019C115.643 29.3009 115.194 27.8686 114.719 26.3515C114.008 24.0818 113.202 21.5078 113.202 18.932C113.202 14.0709 121.315 10.0512 125.456 10.0512C127.226 10.0512 129.535 10.7962 131.976 11.5836C134.85 12.5115 138.105 13.555 140.651 13.4029C142.969 13.2585 144.884 12.5154 146.911 11.7261C149.013 10.9098 151.187 10.0666 154.029 9.75087C156.702 9.4544 159.526 10.6634 161.761 13.0679C164.154 15.6418 165.366 19.0898 164.847 21.8505C164.515 23.6236 163.952 25.1599 163.454 26.5133C162.569 28.9313 161.929 30.6774 162.914 32.4812C164.432 35.2612 166.122 39.3907 166.715 40.8769Z" fill="#313131"/>
<path d="M110.803 44.5193C110.803 44.5193 105.922 38.1239 103.48 45.7379C101.038 53.3519 113.549 60.3576 113.549 60.3576L110.803 44.5193Z" fill="#C9C9C9"/>
<path d="M113.552 61.3203C113.39 61.3203 113.228 61.2798 113.079 61.197C112.541 60.8948 99.913 53.712 102.565 45.4434C103.4 42.8368 104.653 41.3717 106.291 41.0906C108.964 40.6344 111.315 43.5953 111.573 43.9341C111.666 44.0573 111.729 44.2017 111.756 44.3538L114.503 60.1921C114.566 60.5598 114.414 60.9275 114.109 61.1431C113.943 61.2606 113.749 61.3203 113.552 61.3203ZM106.856 42.9677C106.775 42.9677 106.696 42.9735 106.617 42.9889C105.533 43.1775 104.813 44.7465 104.403 46.0306C102.763 51.1477 109.018 56.1897 112.233 58.3805L109.899 44.9294C109.332 44.2595 107.998 42.9677 106.856 42.9677Z" fill="#313131"/>
<path d="M169.086 44.2132C169.086 44.2132 174.883 37.5136 176.104 45.736C177.325 53.9603 168.172 57.6142 168.172 57.6142L169.086 44.2132Z" fill="#C9C9C9"/>
<path d="M168.17 58.5787C167.969 58.5787 167.771 58.5152 167.603 58.3939C167.335 58.1995 167.186 57.8799 167.209 57.5507L168.125 44.1477C168.139 43.9398 168.222 43.7434 168.359 43.5856C168.675 43.2198 171.529 40.0375 174.143 40.796C175.672 41.2388 176.654 42.854 177.061 45.5973C178.378 54.4704 168.631 58.4728 168.532 58.5113C168.413 58.5556 168.291 58.5787 168.17 58.5787ZM170.025 44.6117L169.248 56.0086C171.614 54.6687 175.971 51.4036 175.149 45.8765C174.87 43.9995 174.322 42.8521 173.601 42.6422C172.563 42.3419 170.872 43.7184 170.025 44.6117Z" fill="#313131"/>
<path d="M141.986 62.9412C139.07 62.9412 133.662 61.0815 132.501 60.2132C130.92 59.0292 131.732 55.4735 132.152 54.0007C132.301 53.4886 132.837 53.2018 133.344 53.3385C133.855 53.4848 134.152 54.0181 134.007 54.5282C133.502 56.2975 133.338 58.315 133.668 58.6808C134.804 59.5298 141.172 61.4184 142.539 60.966C145.259 60.0611 148.109 58.3689 148.294 56.8865C148.533 54.9749 147.392 53.7716 147.344 53.7216C146.975 53.3423 146.981 52.734 147.357 52.3624C147.733 51.9928 148.337 51.9909 148.713 52.3643C148.788 52.4413 150.568 54.2529 150.207 57.1233C149.806 60.3364 144.703 62.2732 143.149 62.7891C142.84 62.895 142.445 62.9412 141.986 62.9412Z" fill="#313131"/>
<path d="M140.167 67.7926C134.667 67.7926 130.534 65.494 130.467 65.4555C130.004 65.1917 129.844 64.6065 130.108 64.1444C130.37 63.6824 130.958 63.5207 131.423 63.7825C131.836 64.0154 141.666 69.4367 150.78 62.0441C151.195 61.711 151.8 61.7726 152.138 62.1846C152.473 62.5966 152.412 63.203 151.997 63.54C147.97 66.805 143.776 67.7926 140.167 67.7926Z" fill="#313131"/>
<path d="M119.655 40.2993C119.556 40.2993 119.456 40.2839 119.358 40.2512C118.854 40.0876 118.577 39.5524 118.737 39.0499C118.762 38.9729 121.294 31.4802 132.759 35.0725C133.268 35.2323 133.55 35.7733 133.39 36.2796C133.23 36.784 132.69 37.0651 132.181 36.9091C122.623 33.9059 120.652 39.4041 120.573 39.639C120.438 40.0433 120.06 40.2993 119.655 40.2993Z" fill="#313131"/>
<path d="M159.317 38.1721C159.047 38.1721 158.779 38.0585 158.588 37.839C153.398 31.8402 146.696 36.014 146.413 36.193C145.963 36.4799 145.366 36.349 145.082 35.9023C144.795 35.4557 144.926 34.8589 145.373 34.572C145.456 34.5181 153.774 29.3298 160.048 36.5819C160.397 36.9843 160.351 37.5907 159.948 37.9391C159.766 38.0932 159.541 38.1721 159.317 38.1721Z" fill="#313131"/>
<path d="M130.028 44.2133C130.028 45.8959 129.275 47.2589 128.35 47.2589C127.422 47.2589 126.672 45.8959 126.672 44.2133C126.672 42.5307 127.424 41.1677 128.35 41.1677C129.275 41.1677 130.028 42.5327 130.028 44.2133Z" fill="#313131"/>
<path d="M153.063 44.2133C153.063 45.8959 152.313 47.2589 151.385 47.2589C150.457 47.2589 149.707 45.8959 149.707 44.2133C149.707 42.5307 150.457 41.1677 151.385 41.1677C152.311 41.1677 153.063 42.5327 153.063 44.2133Z" fill="#313131"/>
<path d="M33.3107 171.83C33.3107 171.83 7.07051 212.644 5.54501 215.994C4.01951 219.343 11.3423 229.09 11.3423 229.09C11.3423 229.09 37.5825 265.944 43.6845 271.427C49.7865 276.909 63.5159 289.092 64.7367 290.311C65.9575 291.529 73.2803 296.706 75.1105 297.01C76.9407 297.314 79.9917 293.964 79.9917 293.964C79.9917 293.964 83.6522 294.573 84.873 292.746C86.0937 290.919 87.3145 286.35 87.3145 286.35C87.3145 286.35 90.3655 286.655 90.975 283.913C91.5844 281.172 92.1957 280.563 90.975 278.126C89.7542 275.689 87.0079 272.035 87.0079 272.035C87.0079 272.035 82.4314 263.506 80.2964 261.984C78.1615 260.461 68.3972 264.115 66.567 263.507C64.7367 262.898 64.7367 262.592 62.9065 260.765C61.0763 258.938 58.6347 256.805 57.4139 254.674C56.1932 252.541 47.6496 232.136 44.5986 227.262C41.5476 222.389 38.1919 212.946 38.1919 212.946L56.4979 188.885L33.3107 171.83Z" fill="#C9C9C9"/>
<path d="M75.3356 297.99C75.2063 297.99 75.0771 297.98 74.9518 297.959C72.759 297.595 65.2954 292.228 64.0553 290.99C63.2781 290.214 56.9158 284.537 51.3017 279.528C48.1909 276.75 45.1573 274.041 43.0397 272.141C36.9281 266.648 11.631 231.156 10.5568 229.649C9.29163 227.964 2.99099 219.278 4.66885 215.595C6.20592 212.22 31.4278 172.98 32.5001 171.311C32.6447 171.087 32.8742 170.931 33.1365 170.883C33.3968 170.837 33.6688 170.897 33.8829 171.054L57.07 188.109C57.2783 188.262 57.4153 188.493 57.4538 188.747C57.4905 189.001 57.423 189.261 57.2668 189.467L39.279 213.112C40.006 215.094 42.8488 222.647 45.4176 226.751C47.4156 229.939 51.6643 239.534 54.7673 246.538C56.4163 250.261 57.8396 253.476 58.2523 254.194C59.1664 255.792 60.9118 257.481 62.4508 258.971C62.8442 259.35 63.228 259.724 63.5886 260.082C63.9435 260.436 64.2308 260.734 64.4758 260.988C65.4651 262.014 65.6175 262.172 66.873 262.59C67.4265 262.752 69.8661 262.195 71.65 261.789C76.2477 260.742 79.3721 260.141 80.859 261.196C83.1135 262.804 87.3814 270.683 87.8616 271.577C87.8963 271.608 90.5964 275.208 91.8403 277.693C92.9859 279.98 92.7101 281.029 92.253 282.768C92.1508 283.159 92.0351 283.599 91.9193 284.119C91.4006 286.447 89.4681 287.194 88.0468 287.309C87.6418 288.707 86.6794 291.776 85.6785 293.279C84.4249 295.152 81.5745 295.096 80.3595 294.981C79.4261 295.936 77.2043 297.99 75.3356 297.99ZM33.5666 173.213C24.3654 187.532 7.58292 213.843 6.42192 216.39C5.53284 218.342 9.21449 224.653 12.1131 228.511C12.3909 228.898 38.3745 265.358 44.3299 270.707C46.4456 272.607 49.4772 275.315 52.588 278.09C58.4953 283.361 64.6031 288.813 65.4188 289.627C66.6165 290.823 73.7908 295.813 75.2681 296.059C76.0568 296.202 77.9719 294.744 79.2795 293.314C79.4974 293.075 79.8233 292.956 80.1493 293.013C80.9419 293.141 83.3642 293.271 84.072 292.211C84.9977 290.821 86.0546 287.33 86.3824 286.1C86.5039 285.644 86.9224 285.334 87.4103 285.392C87.6321 285.403 89.6282 285.532 90.0351 283.701C90.1566 283.155 90.2781 282.691 90.388 282.279C90.8085 280.677 90.9358 280.194 90.1142 278.554C88.9474 276.222 86.2648 272.645 86.2378 272.609C84.4307 269.267 81.1579 263.778 79.7366 262.765C78.8398 262.126 74.6066 263.091 72.0763 263.666C69.0118 264.361 67.2279 264.735 66.2617 264.419C64.5549 263.851 64.1556 263.435 63.0834 262.324C62.8461 262.078 62.5665 261.789 62.2232 261.445C61.8703 261.09 61.4942 260.729 61.1066 260.355C59.475 258.776 57.6255 256.986 56.5744 255.151C56.1135 254.347 54.8079 251.399 53.0008 247.32C49.9209 240.368 45.7031 230.846 43.7803 227.774C40.7081 222.868 37.4199 213.66 37.281 213.271C37.173 212.967 37.2251 212.626 37.4218 212.367L55.1357 189.084L33.5666 173.213Z" fill="#313131"/>
<path d="M86.4024 113.048C86.4024 113.048 75.7239 111.221 69.6219 114.875C63.5199 118.529 30.2617 174.876 30.2617 174.876L64.1293 199.243L88.2326 162.389" fill="white"/>
<path d="M64.1281 200.203C63.9275 200.203 63.7308 200.14 63.5649 200.022L29.6973 175.658C29.2942 175.367 29.1766 174.816 29.4312 174.387C30.7947 172.079 62.8842 117.787 69.125 114.051C75.4642 110.254 86.1157 112.023 86.5651 112.1C87.0896 112.189 87.4426 112.687 87.352 113.211C87.2633 113.735 86.7734 114.091 86.2392 113.997C86.1351 113.979 75.8365 112.275 70.1183 115.7C65.3605 118.55 41.0913 158.464 31.5411 174.608L63.8755 197.87L87.4272 161.862C87.7184 161.417 88.3162 161.292 88.7617 161.583C89.2072 161.873 89.3326 162.47 89.0414 162.915L64.9381 199.768C64.7935 199.988 64.5659 200.14 64.3075 200.188C64.2458 200.198 64.1859 200.203 64.1281 200.203Z" fill="#313131"/>
</g>
<defs>
<clipPath id="clip0_3426_6788">
<rect width="243" height="349" fill="white"/>
</clipPath>
</defs>
</svg>
