<svg width="136" height="70" viewBox="0 0 136 70" fill="none" xmlns="http://www.w3.org/2000/svg">
<g clip-path="url(#clip0_4434_1802)">
<mask id="mask0_4434_1802" style="mask-type:luminance" maskUnits="userSpaceOnUse" x="0" y="-1" width="136" height="71">
<path d="M0 -0.0132294H135.137V69.3169H0L0 -0.0132294Z" fill="white"/>
</mask>
<g mask="url(#mask0_4434_1802)">
<path d="M17.6036 30.1545C16.254 25.6571 14.9044 21.3619 13.6135 18.0267C13.4961 17.673 13.3201 17.6225 12.7333 17.8752L10.2101 19.1385C9.74068 19.3911 9.50597 19.6438 9.38861 20.1491C8.09768 24.7475 6.80674 30.4071 5.45713 36.2183C5.45713 36.471 5.45713 36.5721 5.8092 36.4205L8.21504 35.1572C8.44975 35.0561 8.62579 34.854 8.68447 34.6518L9.27125 31.721L13.9069 29.447L14.4937 31.721C14.4937 31.9231 14.7284 31.9736 15.0218 31.822L17.3103 30.6598C17.6036 30.5587 17.721 30.4071 17.6623 30.1545M30.0436 18.6837L28.8113 19.2901V30.3061L0.117358 44.5561L0 19.189L38.4933 -0.0132294L38.552 14.439L30.0436 18.6837ZM11.5597 20.9576C12.1465 22.9284 12.8507 25.3034 13.3201 27.3247L9.79936 29.1438C10.1514 26.6172 10.8556 23.5853 11.4424 21.0081L11.5597 20.9576ZM49.8183 28.0321V26.314C49.8183 23.8885 49.2902 22.4736 48.2927 21.9177C47.2365 21.4124 45.5934 21.8167 43.5397 22.9284L39.0214 25.1518C38.6107 25.3034 38.4933 25.5055 38.4933 25.7582L38.552 40.1093C38.552 40.4125 38.728 40.4125 39.0801 40.3114L43.7744 37.8859C45.6521 37.0268 47.1191 35.9657 48.1166 34.5002C49.2902 32.8832 49.877 30.7103 49.877 27.9816M57.0358 41.221L31.3345 54.1572L31.2171 20.5534L57.0358 7.76872V41.221ZM46.767 28.9922C46.767 31.1651 46.7083 32.5295 46.0042 33.6412C45.5348 34.4497 44.6546 35.0561 43.3637 35.6625L41.662 36.6226V26.314L43.3637 25.455C44.5372 24.8486 45.4761 24.5959 45.9455 25.0002C46.5323 25.4044 46.767 26.5162 46.767 28.3858V28.9922ZM31.3345 59.0083L41.7793 64.1626L31.3932 69.3169L31.3345 59.0083ZM85.7884 25.2528C85.7884 23.3832 85.2603 22.0188 84.3801 20.9071C83.6173 19.8964 82.3851 18.9869 80.566 18.0773L76.4585 16.056C76.2238 15.9044 76.0478 15.9549 76.0478 16.3087V30.3061C76.0478 30.5587 76.2238 30.7609 76.5172 30.9125L78.6296 31.9736C78.923 32.0747 79.0404 32.0242 79.0404 31.7715V26.9709L80.566 27.6279C84.0868 29.447 85.8471 28.689 85.8471 25.455L85.7884 25.2528ZM94.1208 46.1226L70.884 34.5002L70.9427 7.71819L106.971 25.6066L94.0622 32.0242V33.2875L94.1208 46.1226ZM82.1504 21.7156C82.5024 22.2209 82.7371 22.8778 82.7371 23.7369V23.939C82.7371 24.9497 82.5611 25.455 82.1504 25.556C81.7396 25.7582 81.2702 25.6066 80.0966 25.0507L79.0404 24.5454L79.0991 19.7954L80.214 20.3007C80.9981 20.6102 81.6681 21.0997 82.1504 21.7156ZM75.3436 44.7077C70.0625 46.0721 63.7839 47.8913 57.3292 49.7609C57.0358 49.862 56.9771 49.9631 57.3292 50.1147L59.735 51.3274C59.9698 51.4285 60.3218 51.479 60.4392 51.378L63.6665 50.3673L68.3608 52.6918L66.2484 54.2583C66.131 54.3594 66.1897 54.511 66.4831 54.6626L68.7716 55.8248C69.065 55.9764 69.241 55.9764 69.3584 55.8248C72.887 52.9165 76.2926 49.8994 79.5685 46.7796C79.8032 46.5269 79.8032 46.3753 79.2751 46.1226L76.7519 44.8088C76.3411 44.6067 75.813 44.5561 75.3436 44.7077ZM70.8253 36.7742L96.5267 49.5588L57.0358 69.3169L31.3345 56.5323L70.8253 36.7742ZM70.1212 51.1253L66.6005 49.4072C69.241 48.4976 72.6444 47.4365 75.461 46.628L75.637 46.6785C73.8766 48.0934 71.9402 49.8115 70.1212 51.1253ZM130.267 21.8167L130.032 23.8379C129.974 24.0906 129.856 24.2422 129.622 24.3938L126.512 25.9098L126.57 38.5933C126.57 38.846 126.394 39.0481 126.218 39.0987L123.695 40.362C123.46 40.463 123.402 40.4125 123.402 40.1598V27.4763L119.881 29.1944C119.705 29.2954 119.529 29.1944 119.529 29.0428V27.1731C119.529 26.9709 119.646 26.7688 119.881 26.6677L129.974 21.6651C130.208 21.5135 130.326 21.5135 130.267 21.8167ZM135.079 14.0852L96.5267 33.2369L96.644 58.6546L135.137 39.4524L135.079 14.0852Z" fill="white"/>
</g>
</g>
<defs>
<clipPath id="clip0_4434_1802">
<rect width="135.152" height="69.3177" fill="white"/>
</clipPath>
</defs>
</svg>
