<svg width="123" height="48" viewBox="0 0 123 48" fill="none" xmlns="http://www.w3.org/2000/svg">
<path d="M9.42179 47.9188C8.07525 47.9188 6.85214 47.6832 5.75247 47.2119C4.65279 46.7406 3.71021 46.0449 2.92473 45.1247C2.16169 44.1822 1.56696 43.0264 1.14056 41.6574C0.736596 40.266 0.534614 38.6613 0.534614 36.8435C0.534614 34.1953 0.904913 31.8389 1.64551 29.7742C2.38611 27.687 3.39602 25.9029 4.67523 24.4217C5.95445 22.918 7.43564 21.7286 9.11882 20.8533C10.802 19.9556 12.5862 19.3721 14.4713 19.1028V3.51659C14.4713 3.02286 14.4264 2.63011 14.3367 2.33836C14.2693 2.04661 14.1908 1.82219 14.101 1.66509C14.0337 1.48555 13.9552 1.3509 13.8654 1.26113C13.7981 1.14892 13.7644 1.03671 13.7644 0.924494C13.7644 0.789839 13.8317 0.677627 13.9664 0.587858C14.101 0.498088 14.2806 0.41954 14.505 0.352213C14.7294 0.284886 14.9651 0.240001 15.2119 0.217559C15.4812 0.172674 15.7393 0.150232 15.9862 0.150232C17.1307 0.150232 18.0284 0.453204 18.6793 1.05915C19.3525 1.64265 19.6892 2.34958 19.6892 3.17995V40.2099C19.6892 40.5914 19.7341 40.9729 19.8238 41.3544C19.9136 41.7135 20.0483 42.0501 20.2278 42.3643C20.4298 42.6561 20.6766 42.903 20.9684 43.1049C21.2826 43.2845 21.6417 43.3742 22.0456 43.3742C22.7413 43.3742 23.3361 43.1274 23.8298 42.6336C24.346 42.1399 24.7836 41.5227 25.1427 40.7821C25.5242 40.0415 25.8272 39.2448 26.0516 38.392C26.2985 37.5168 26.5004 36.6976 26.6575 35.9346C26.7922 35.2164 27.0166 34.7003 27.3308 34.3861C27.645 34.0494 27.9704 33.8811 28.3071 33.8811C28.5764 33.8811 28.8569 33.9709 29.1486 34.1504C29.4404 34.3075 29.6985 34.5207 29.9229 34.79C30.1698 35.0593 30.3605 35.3623 30.4952 35.699C30.6523 36.0356 30.7308 36.3722 30.7308 36.7089C30.7308 36.7537 30.7308 36.8098 30.7308 36.8772C30.7308 36.9445 30.7084 37.0455 30.6635 37.1801C30.3717 38.3247 29.9678 39.5254 29.4516 40.7821C28.9579 42.0389 28.3071 43.1947 27.4991 44.2495C26.7136 45.3043 25.7711 46.1795 24.6714 46.8753C23.5717 47.571 22.2813 47.9188 20.8001 47.9188C19.6106 47.9188 18.5671 47.672 17.6694 47.1782C16.7717 46.6845 16.0647 46.0337 15.5486 45.2257C14.7855 46.0112 13.899 46.6508 12.8891 47.1446C11.9017 47.6607 10.7459 47.9188 9.42179 47.9188ZM10.4654 43.3742C11.3631 43.3742 12.1373 43.1162 12.7881 42.6C13.4614 42.0838 14.0225 41.4442 14.4713 40.6812V23.6474C13.3492 23.8494 12.2608 24.2309 11.206 24.792C10.1736 25.3306 9.25348 26.0936 8.44555 27.0811C7.66007 28.0685 7.03168 29.3253 6.56039 30.8514C6.0891 32.355 5.85346 34.1841 5.85346 36.3386C5.85346 37.5953 5.97689 38.6726 6.22376 39.5703C6.49306 40.4455 6.8297 41.1637 7.23366 41.7247C7.66007 42.2858 8.1538 42.701 8.71486 42.9703C9.27592 43.2396 9.85942 43.3742 10.4654 43.3742ZM42.816 25.9365C42.816 27.2157 42.5916 28.5286 42.1428 29.8752C41.7164 31.2217 41.0655 32.5009 40.1903 33.7128C39.3375 34.9022 38.2715 35.9795 36.9922 36.9445C35.7355 37.8871 34.2767 38.6052 32.616 39.099C32.8404 39.6825 33.1322 40.2435 33.4912 40.7821C33.8728 41.2983 34.3216 41.7472 34.8378 42.1287C35.354 42.5102 35.9487 42.8132 36.6219 43.0376C37.3177 43.262 38.1144 43.3742 39.0121 43.3742C40.3586 43.3742 41.5144 43.1274 42.4794 42.6336C43.4444 42.1175 44.2524 41.4442 44.9032 40.6138C45.5765 39.7835 46.1151 38.8521 46.519 37.8198C46.923 36.7874 47.226 35.7438 47.428 34.689C47.585 33.926 47.8992 33.421 48.3705 33.1742C48.8643 32.9049 49.358 32.8375 49.8517 32.9722C50.3679 33.1069 50.8055 33.3986 51.1646 33.8475C51.5461 34.2739 51.7032 34.79 51.6359 35.396C51.5461 36.0917 51.389 36.8884 51.1646 37.7861C50.9626 38.6838 50.6484 39.5927 50.222 40.5128C49.7956 41.433 49.2458 42.3419 48.5725 43.2396C47.9217 44.1148 47.1138 44.9003 46.1487 45.596C45.1837 46.2918 44.0504 46.8528 42.7487 47.2792C41.4471 47.7056 39.9546 47.9188 38.2715 47.9188C36.7005 47.9188 35.1744 47.6046 33.6932 46.9762C32.2345 46.3703 30.9328 45.495 29.7882 44.3505C28.6661 43.1835 27.7572 41.7584 27.0615 40.0752C26.3882 38.3696 26.0516 36.4395 26.0516 34.2851C26.0516 32.1082 26.3546 30.0884 26.9605 28.2256C27.5665 26.3405 28.3632 24.7134 29.3506 23.3444C30.3381 21.9754 31.4602 20.9094 32.717 20.1464C33.9737 19.3609 35.2642 18.9682 36.5883 18.9682C37.5533 18.9682 38.4173 19.1365 39.1804 19.4731C39.9659 19.8098 40.6279 20.2923 41.1665 20.9206C41.7051 21.5266 42.1091 22.256 42.3784 23.1088C42.6702 23.9616 42.816 24.9042 42.816 25.9365ZM31.7071 34.0831C31.7071 34.2851 31.7183 34.4871 31.7407 34.689C31.7632 34.891 31.7744 35.1042 31.7744 35.3287C32.6272 34.9247 33.4015 34.4085 34.0972 33.7801C34.7929 33.1517 35.3876 32.4336 35.8814 31.6257C36.3751 30.8177 36.7566 29.9425 37.0259 28.9999C37.2952 28.0349 37.4299 27.0362 37.4299 26.0038C37.4299 25.2408 37.2952 24.6461 37.0259 24.2197C36.779 23.7933 36.4312 23.5801 35.9823 23.5801C35.4213 23.5801 34.9163 23.7708 34.4675 24.1523C34.0411 24.5339 33.6596 25.0388 33.3229 25.6672C33.0087 26.2732 32.7394 26.9689 32.515 27.7544C32.313 28.5174 32.1447 29.2917 32.01 30.0771C31.8754 30.8626 31.7856 31.6144 31.7407 32.3326C31.6958 33.0283 31.6846 33.6118 31.7071 34.0831ZM63.2835 25.9365C63.2835 27.2157 63.0591 28.5286 62.6102 29.8752C62.1838 31.2217 61.533 32.5009 60.6577 33.7128C59.8049 34.9022 58.7389 35.9795 57.4597 36.9445C56.2029 37.8871 54.7442 38.6052 53.0834 39.099C53.3079 39.6825 53.5996 40.2435 53.9587 40.7821C54.3402 41.2983 54.789 41.7472 55.3052 42.1287C55.8214 42.5102 56.4161 42.8132 57.0894 43.0376C57.7851 43.262 58.5818 43.3742 59.4795 43.3742C60.826 43.3742 61.9818 43.1274 62.9469 42.6336C63.9119 42.1175 64.7198 41.4442 65.3706 40.6138C66.0439 39.7835 66.5825 38.8521 66.9865 37.8198C67.3904 36.7874 67.6934 35.7438 67.8954 34.689C68.0525 33.926 68.3667 33.421 68.838 33.1742C69.3317 32.9049 69.8254 32.8375 70.3192 32.9722C70.8353 33.1069 71.273 33.3986 71.632 33.8475C72.0136 34.2739 72.1707 34.79 72.1033 35.396C72.0136 36.0917 71.8565 36.8884 71.632 37.7861C71.4301 38.6838 71.1159 39.5927 70.6895 40.5128C70.2631 41.433 69.7132 42.3419 69.04 43.2396C68.3891 44.1148 67.5812 44.9003 66.6162 45.596C65.6512 46.2918 64.5178 46.8528 63.2162 47.2792C61.9145 47.7056 60.4221 47.9188 58.7389 47.9188C57.1679 47.9188 55.6419 47.6046 54.1607 46.9762C52.7019 46.3703 51.4002 45.495 50.2557 44.3505C49.1336 43.1835 48.2247 41.7584 47.5289 40.0752C46.8557 38.3696 46.519 36.4395 46.519 34.2851C46.519 32.1082 46.822 30.0884 47.4279 28.2256C48.0339 26.3405 48.8306 24.7134 49.8181 23.3444C50.8055 21.9754 51.9276 20.9094 53.1844 20.1464C54.4412 19.3609 55.7316 18.9682 57.0557 18.9682C58.0207 18.9682 58.8848 19.1365 59.6478 19.4731C60.4333 19.8098 61.0954 20.2923 61.634 20.9206C62.1726 21.5266 62.5766 22.256 62.8459 23.1088C63.1376 23.9616 63.2835 24.9042 63.2835 25.9365ZM52.1745 34.0831C52.1745 34.2851 52.1857 34.4871 52.2082 34.689C52.2306 34.891 52.2418 35.1042 52.2418 35.3287C53.0946 34.9247 53.8689 34.4085 54.5646 33.7801C55.2603 33.1517 55.8551 32.4336 56.3488 31.6257C56.8425 30.8177 57.224 29.9425 57.4934 28.9999C57.7627 28.0349 57.8973 27.0362 57.8973 26.0038C57.8973 25.2408 57.7627 24.6461 57.4934 24.2197C57.2465 23.7933 56.8986 23.5801 56.4498 23.5801C55.8887 23.5801 55.3838 23.7708 54.9349 24.1523C54.5085 24.5339 54.127 25.0388 53.7904 25.6672C53.4762 26.2732 53.2069 26.9689 52.9824 27.7544C52.7805 28.5174 52.6121 29.2917 52.4775 30.0771C52.3428 30.8626 52.2531 31.6144 52.2082 32.3326C52.1633 33.0283 52.1521 33.6118 52.1745 34.0831ZM75.6044 47.9188C74.2578 47.9188 73.0347 47.6832 71.935 47.2119C70.8353 46.7406 69.8928 46.0449 69.1073 45.1247C68.3442 44.1822 67.7495 43.0264 67.3231 41.6574C66.9192 40.266 66.7172 38.6613 66.7172 36.8435C66.7172 34.1953 67.0875 31.8389 67.8281 29.7742C68.5687 27.687 69.5786 25.9029 70.8578 24.4217C72.137 22.918 73.6182 21.7286 75.3014 20.8533C76.9846 19.9556 78.7687 19.3721 80.6539 19.1028V3.51659C80.6539 3.02286 80.609 2.63011 80.5192 2.33836C80.4519 2.04661 80.3734 1.82219 80.2836 1.66509C80.2163 1.48555 80.1377 1.3509 80.0479 1.26113C79.9806 1.14892 79.9469 1.03671 79.9469 0.924494C79.9469 0.789839 80.0143 0.677627 80.1489 0.587858C80.2836 0.498088 80.4631 0.41954 80.6875 0.352213C80.912 0.284886 81.1476 0.240001 81.3945 0.217559C81.6638 0.172674 81.9219 0.150232 82.1687 0.150232C83.3133 0.150232 84.211 0.453204 84.8618 1.05915C85.5351 1.64265 85.8717 2.34958 85.8717 3.17995V40.2099C85.8717 40.5914 85.9166 40.9729 86.0064 41.3544C86.0962 41.7135 86.2308 42.0501 86.4104 42.3643C86.6123 42.6561 86.8592 42.903 87.151 43.1049C87.4651 43.2845 87.8242 43.3742 88.2282 43.3742C88.9239 43.3742 89.5186 43.1274 90.0124 42.6336C90.5285 42.1399 90.9662 41.5227 91.3252 40.7821C91.7068 40.0415 92.0097 39.2448 92.2341 38.392C92.481 37.5168 92.683 36.6976 92.8401 35.9346C92.9747 35.2164 93.1992 34.7003 93.5134 34.3861C93.8276 34.0494 94.153 33.8811 94.4896 33.8811C94.7589 33.8811 95.0394 33.9709 95.3312 34.1504C95.6229 34.3075 95.881 34.5207 96.1055 34.79C96.3523 35.0593 96.5431 35.3623 96.6777 35.699C96.8348 36.0356 96.9134 36.3722 96.9134 36.7089C96.9134 36.7537 96.9134 36.8098 96.9134 36.8772C96.9134 36.9445 96.8909 37.0455 96.8461 37.1801C96.5543 38.3247 96.1503 39.5254 95.6342 40.7821C95.1404 42.0389 94.4896 43.1947 93.6817 44.2495C92.8962 45.3043 91.9536 46.1795 90.8539 46.8753C89.7543 47.571 88.4638 47.9188 86.9826 47.9188C85.7932 47.9188 84.7496 47.672 83.8519 47.1782C82.9542 46.6845 82.2473 46.0337 81.7311 45.2257C80.9681 46.0112 80.0816 46.6508 79.0717 47.1446C78.0842 47.6607 76.9285 47.9188 75.6044 47.9188ZM76.6479 43.3742C77.5456 43.3742 78.3199 43.1162 78.9707 42.6C79.644 42.0838 80.205 41.4442 80.6539 40.6812V23.6474C79.5318 23.8494 78.4433 24.2309 77.3885 24.792C76.3562 25.3306 75.436 26.0936 74.6281 27.0811C73.8426 28.0685 73.2142 29.3253 72.7429 30.8514C72.2717 32.355 72.036 34.1841 72.036 36.3386C72.036 37.5953 72.1594 38.6726 72.4063 39.5703C72.6756 40.4455 73.0123 41.1637 73.4162 41.7247C73.8426 42.2858 74.3364 42.701 74.8974 42.9703C75.4585 43.2396 76.042 43.3742 76.6479 43.3742ZM112.096 47.9188C111.31 47.9188 110.592 47.7954 109.941 47.5485C109.313 47.3017 108.752 46.9538 108.258 46.505C107.787 46.0785 107.394 45.5736 107.08 44.9901C106.766 44.3841 106.552 43.7333 106.44 43.0376C105.61 44.4964 104.634 45.6858 103.511 46.6059C102.389 47.5261 101.065 47.9862 99.5391 47.9862C98.3946 47.9862 97.3622 47.7505 96.4421 47.2792C95.5444 46.8079 94.7814 46.1459 94.153 45.2931C93.5246 44.4178 93.0421 43.3742 92.7054 42.1624C92.3912 40.928 92.2341 39.559 92.2341 38.0554C92.2341 36.2376 92.3576 34.4085 92.6044 32.5682C92.8738 30.728 93.1655 29.0672 93.4797 27.586C93.8388 25.858 94.254 24.186 94.7252 22.5702C94.8375 22.2784 94.916 21.9867 94.9609 21.6949C95.0282 21.3807 95.1629 21.1002 95.3649 20.8533C95.5668 20.6065 95.881 20.4045 96.3074 20.2474C96.7563 20.0903 97.4408 20.0117 98.3609 20.0117C99.2137 20.0117 99.7636 20.1688 100.01 20.483C100.257 20.7748 100.347 21.1226 100.28 21.5266C100.235 21.9306 100.1 22.3457 99.8758 22.7721C99.6738 23.1985 99.5391 23.5464 99.4718 23.8157C99.1576 25.0949 98.8771 26.2619 98.6302 27.3167C98.3834 28.3715 98.1702 29.4375 97.9906 30.5148C97.8335 31.5696 97.7101 32.6805 97.6203 33.8475C97.5305 34.992 97.4857 36.2825 97.4857 37.7188C97.4857 39.6039 97.755 41.029 98.2936 41.994C98.8546 42.9591 99.6401 43.4416 100.65 43.4416C101.346 43.4416 101.985 43.1835 102.569 42.6673C103.175 42.1511 103.713 41.4666 104.185 40.6138C104.678 39.7386 105.105 38.7511 105.464 37.6514C105.823 36.5293 106.104 35.3623 106.306 34.1504V23.0415C106.306 22.5477 106.261 22.155 106.171 21.8632C106.104 21.5715 106.025 21.3471 105.935 21.19C105.868 21.0104 105.789 20.8758 105.7 20.786C105.632 20.6738 105.599 20.5503 105.599 20.4157C105.599 20.3035 105.666 20.2025 105.801 20.1127C105.935 20.023 106.115 19.9444 106.339 19.8771C106.564 19.8098 106.799 19.7649 107.046 19.7424C107.315 19.6975 107.574 19.6751 107.82 19.6751C108.965 19.6751 109.863 19.9781 110.513 20.584C111.187 21.1675 111.523 21.8744 111.523 22.7048V40.2099C111.523 40.367 111.535 40.6251 111.557 40.9841C111.579 41.3208 111.647 41.6686 111.759 42.0277C111.871 42.3868 112.051 42.701 112.298 42.9703C112.544 43.2396 112.892 43.3742 113.341 43.3742C114.037 43.3742 114.632 43.1274 115.125 42.6336C115.642 42.1399 116.079 41.5227 116.438 40.7821C116.82 40.0415 117.123 39.2448 117.347 38.392C117.594 37.5168 117.796 36.6976 117.953 35.9346C118.088 35.2164 118.312 34.7003 118.626 34.3861C118.941 34.0494 119.266 33.8811 119.603 33.8811C119.872 33.8811 120.152 33.9709 120.444 34.1504C120.736 34.3075 120.994 34.5207 121.218 34.79C121.465 35.0593 121.656 35.3623 121.791 35.699C121.948 36.0356 122.026 36.3722 122.026 36.7089C122.026 36.7537 122.026 36.8098 122.026 36.8772C122.026 36.9445 122.004 37.0455 121.959 37.1801C121.645 38.3247 121.23 39.5254 120.714 40.7821C120.22 42.0389 119.58 43.1947 118.795 44.2495C118.009 45.3043 117.067 46.1795 115.967 46.8753C114.867 47.571 113.577 47.9188 112.096 47.9188Z" fill="#D23E32"/>
</svg>
