<svg width="132" height="52" viewBox="0 0 132 52" fill="none" xmlns="http://www.w3.org/2000/svg">
<path d="M15.8059 22.0522H5.41607L0.203125 44.6835H6.77159L7.67286 39.7659H13.5203L14.4216 44.6835H20.99L15.8059 22.0522ZM8.54529 34.9999L9.87196 27.7281H11.314L12.6334 34.9999H8.54529Z" fill="white"/>
<path d="M85.4026 46.9942C82.5185 48.1063 79.6344 47.8969 78.625 46.5754C78.9422 46.5754 79.2595 46.5754 79.584 46.5754C81.5703 46.6364 83.5458 46.26 85.3709 45.4726C87.1961 44.6853 88.8265 43.5063 90.1468 42.0188C90.3776 43.7013 88.3876 45.8605 85.4026 46.9942Z" fill="white"/>
<path d="M86.002 49.1027C83.7813 49.9909 81.5894 49.8248 80.7891 48.7633C81.0342 48.7633 81.2721 48.7633 81.5101 48.7633C83.053 48.7998 84.5843 48.4884 85.9909 47.8521C87.3974 47.2159 88.6431 46.2711 89.6359 45.0877C89.8522 46.467 88.3165 48.1928 86.002 49.1027Z" fill="white"/>
<path d="M86.8749 50.7203C85.2814 51.3557 83.7096 51.233 83.1328 50.4747C83.3059 50.4747 83.4861 50.4747 83.6592 50.4747C84.7667 50.5028 85.8664 50.2805 86.8763 49.8241C87.8861 49.3678 88.7803 48.6892 89.4922 47.839C89.6075 48.8283 88.526 50.0631 86.8749 50.7203Z" fill="white"/>
<path d="M79.0515 45.1022H78.792H78.2656V45.0444H78.3954C78.5829 45.0733 78.792 45.095 79.0515 45.1022Z" fill="white"/>
<path d="M79.0523 45.1023H78.7927H78.2663C77.4038 45.0493 76.5548 44.8617 75.75 44.5463C76.5692 44.7994 77.4126 44.9664 78.2663 45.0445H78.3961C78.5836 45.0734 78.7927 45.0951 79.0523 45.1023Z" fill="white"/>
<path d="M33.9868 22.0522V27.2154H30.2519V44.6907H23.8349V27.2154H19.4872L18.3047 22.0522H33.9868Z" fill="white"/>
<path d="M47.7892 22.0522V30.465H42.1436V22.0522H35.7266V44.6835H42.1436V35.2959H47.7892V44.6835H54.2351V22.0522H47.7892Z" fill="white"/>
<path d="M59.6347 41.6795C59.5336 41.4351 59.4892 41.1709 59.5049 40.9068C59.6034 39.9777 59.9919 39.1034 60.6152 38.4083C61.3647 37.6046 62.1932 36.8788 63.0883 36.2419V22.0522H56.6641V44.6835H67.6091V43.4054C63.3046 43.8892 60.2908 43.3476 59.6347 41.6795ZM59.5914 41.1957L59.5481 41.1018C59.5481 41.1018 59.5481 41.1018 59.5481 41.1451C59.5593 41.1645 59.574 41.1817 59.5914 41.1957Z" fill="white"/>
<path d="M108.354 22.0522V34.8843H107.229L101.144 22.0522H93.7536V24.4208C96.1185 24.1897 97.9211 24.3125 98.9377 24.8252L99.0242 24.8757C99.2111 24.9969 99.3808 25.1426 99.5289 25.309C99.5727 25.3621 99.6136 25.4176 99.6515 25.4751C99.6515 25.5329 99.7092 25.5906 99.738 25.6484C99.7407 25.6748 99.7407 25.7014 99.738 25.7278C100.459 27.6054 98.0653 30.4938 93.7031 33.4401V44.6835H99.702V31.8659H100.812L106.689 44.6835H114.31V22.0522H108.354Z" fill="white"/>
<path d="M123.167 39.5276V35.1948H130.94V30.7394H123.167V27.2082H131.307V22.0522H116.75V44.6835H131.516V39.5276H123.167Z" fill="white"/>
<path d="M91.6745 34.7976C91.4425 36.9313 90.6238 38.9587 89.3096 40.654C88.2195 42.0038 86.848 43.0986 85.2913 43.862C83.7345 44.6254 82.0299 45.0388 80.2969 45.0734C81.8818 44.9372 83.4078 44.4077 84.7371 43.5327C86.0665 42.6578 87.1572 41.4649 87.9108 40.0619C88.2274 39.5176 88.4975 38.9475 88.7183 38.3577C89.2576 36.8959 90.2738 35.6593 91.6024 34.8482L91.6745 34.7976Z" fill="white"/>
<path d="M87.0987 39.1303C86.9833 39.3975 86.8608 39.6646 86.7238 39.9174C85.1519 42.9864 82.3977 44.9722 79.0882 45.095C78.8503 45.095 78.6195 45.095 78.3672 45.0444H78.2374C77.3836 44.9663 76.5403 44.7993 75.721 44.5462C74.3781 44.1486 73.1194 43.5073 72.0078 42.6542L72.6639 42.5026L72.8586 42.452C75.9768 41.6975 79.0369 40.7201 82.0155 39.5274C83.335 39.0075 84.604 38.4587 85.8225 37.8954C85.9967 37.8189 86.1897 37.796 86.377 37.8296C86.5642 37.8632 86.7373 37.9518 86.8741 38.0842C87.0109 38.2166 87.1053 38.3867 87.1453 38.573C87.1853 38.7593 87.1691 38.9533 87.0987 39.1303Z" fill="white"/>
<path d="M59.5547 41.1016L59.5982 41.196C59.5958 41.1791 59.5958 41.162 59.5982 41.1452C59.5982 41.1452 59.5619 41.1161 59.5547 41.1016Z" fill="white"/>
<path d="M59.5795 39.9752C59.8236 39.3918 60.1759 38.8601 60.6178 38.4082C59.993 39.1053 59.6044 39.9823 59.5074 40.914C59.4619 40.612 59.484 40.3036 59.5723 40.0113L59.5795 39.9752Z" fill="white"/>
<path d="M65.3866 34.6675C64.591 35.1633 63.8253 35.7058 63.0938 36.2923V36.2417C63.7715 35.7073 64.5502 35.1802 65.3866 34.6675Z" fill="white"/>
<path d="M93.7581 32.1834L93.2029 32.5228C92.7487 32.8044 92.2656 33.086 91.7609 33.3676C91.0399 33.7576 90.3189 34.1548 89.5979 34.5447C89.5979 34.1403 89.6483 33.7287 89.6483 33.3099C89.7281 30.2627 88.7036 27.2897 86.7643 24.9405C85.8832 23.9098 84.791 23.081 83.5619 22.5103C82.3327 21.9397 80.9954 21.6405 79.6406 21.6332C82.715 21.5752 85.7011 22.6639 88.0188 24.6878C88.092 24.7437 88.1619 24.804 88.2279 24.8683C88.3721 24.9983 88.5091 25.1427 88.6461 25.2871C90.1841 26.9228 91.1898 28.9877 91.5302 31.2085C92.0061 30.9341 92.4531 30.6669 92.8785 30.3997C93.1669 30.2192 93.4409 30.0459 93.7077 29.8654C96.5052 28.0167 98.0338 26.3847 97.6516 25.381C97.3488 24.5867 95.914 24.2978 93.7077 24.4567C96.0726 24.2256 97.8751 24.3484 98.8918 24.8611L98.9783 24.9116C99.1651 25.0328 99.3349 25.1785 99.483 25.3449C99.5268 25.398 99.5677 25.4535 99.6056 25.511C99.6056 25.5687 99.6633 25.6265 99.6921 25.6843C99.6948 25.7107 99.6948 25.7373 99.6921 25.7637C100.247 27.2224 97.8823 29.6198 93.7581 32.1834Z" fill="white"/>
<path d="M88.2242 33.31C88.2144 33.8859 88.041 34.4471 87.7243 34.928C87.4077 35.4088 86.9608 35.7894 86.4361 36.0252C84.8643 36.7473 83.206 37.4694 81.4683 38.1049C78.3003 39.3292 75.059 40.3542 71.7634 41.1739H71.6192C71.302 41.2533 70.9847 41.3328 70.6675 41.3978C70.0979 41.5277 69.5355 41.6433 68.9947 41.7516L67.6104 41.9971C67.0191 42.091 66.4567 42.1704 65.916 42.2282C65.5555 42.2643 65.195 42.3004 64.8777 42.3221C63.719 42.4364 62.5502 42.3951 61.4024 42.1993C61.1192 42.1619 60.8395 42.1015 60.566 42.0188C60.4536 41.9722 60.3451 41.9167 60.2416 41.8527C59.965 41.7062 59.7389 41.4798 59.5927 41.2028L59.5494 41.1089C59.546 41.0947 59.546 41.0798 59.5494 41.0656C59.5466 41.0271 59.5466 40.9885 59.5494 40.95C59.6268 40.0108 60.0005 39.1206 60.6165 38.4082C61.3659 37.6045 62.1945 36.8787 63.0896 36.2418V36.3212C61.4745 37.6211 60.6814 38.7331 60.9698 39.4914C61.3808 40.5673 63.8539 40.7117 67.6104 40.0835H67.7618C68.2593 39.9968 68.7856 39.903 69.3336 39.7874C68.1344 37.8582 67.5114 35.6257 67.5383 33.3533V33.2883C67.5383 33.115 67.5383 32.9273 67.5383 32.754C67.5926 30.3514 68.4146 28.0296 69.8836 26.1294C71.3527 24.2292 73.3913 22.8508 75.7002 22.1966C76.5594 21.9359 77.4441 21.7688 78.3391 21.6983H78.3896C78.577 21.6983 78.7717 21.6622 78.9664 21.655H79.125C80.4211 21.7074 81.6886 22.0529 82.8324 22.6657C83.9762 23.2785 84.9666 24.1426 85.7295 25.1934C87.4214 27.5546 88.2974 30.4046 88.2242 33.31Z" fill="white"/>
<path d="M63.0903 35.8951V36.2417C62.1952 36.8786 61.3666 37.6044 60.6172 38.4081C61.3408 37.4766 62.1708 36.6332 63.0903 35.8951Z" fill="white"/>
<path d="M63.0938 36.2923V36.2417C63.7715 35.7363 64.5358 35.2091 65.3866 34.6964C64.5917 35.1829 63.8261 35.7157 63.0938 36.2923Z" fill="white"/>
<path d="M79.0523 45.1023H78.7927H78.2663C77.4038 45.0493 76.5548 44.8617 75.75 44.5463C76.5692 44.7994 77.4126 44.9664 78.2663 45.0445H78.3961C78.5836 45.0734 78.7927 45.0951 79.0523 45.1023Z" fill="white"/>
<path d="M56.9344 15.5602C56.1603 15.5758 55.3913 15.4322 54.6749 15.1382C53.9585 14.8443 53.3099 14.4063 52.7692 13.8513C52.2286 13.2962 51.8074 12.636 51.5316 11.9115C51.2559 11.1869 51.1316 10.4134 51.1662 9.63881C51.1662 6.20151 53.5528 3.66687 56.9344 3.66687C58.1384 3.64058 59.3189 4.00359 60.3007 4.70209C61.2826 5.40058 62.0135 6.39737 62.3852 7.54466H66.2283C65.8113 5.40486 64.6467 3.48384 62.9436 2.1261C61.2404 0.768353 59.11 0.0627055 56.9344 0.135699C51.3897 0.135699 47.3304 4.20846 47.3304 9.58826C47.3023 10.8547 47.5323 12.1137 48.0062 13.2882C48.4801 14.4627 49.1881 15.5282 50.0868 16.4195C50.9856 17.3109 52.0563 18.0094 53.2336 18.4725C54.4109 18.9356 55.6701 19.1536 56.9344 19.113C59.1373 19.1802 61.2904 18.4487 62.9978 17.053C64.7053 15.6573 65.8524 13.6913 66.2283 11.5163H62.4357C62.0936 12.7043 61.3682 13.7454 60.373 14.477C59.3777 15.2086 58.1686 15.5895 56.9344 15.5602Z" fill="white"/>
<path d="M77.0572 8.80121L82.436 0.475159H78.2253L73.6252 7.59527H71.974V0.475159H68.2031V18.752H71.974V10.5632H73.8487L78.5425 18.752H82.8686L77.0572 8.80121Z" fill="white"/>
<path d="M27.0239 1.65213V8.24509H20.4987V1.34161H16.8359V19.0913H20.4987V11.148H27.0239V19.0913H30.6867V4.25898L27.0239 1.65213Z" fill="white"/>
<path d="M43.1656 1.34161H36.5899L35.5949 5.52991L38.7169 7.06081L41.7596 5.26995L41.5722 9.14052L43.3026 11.7474L39.8561 10.8808L36.9 12.4117L37.1019 10.9675L37.3542 9.06109L35.1335 7.47964L34.809 8.80112L32.3359 19.0913H36.0996L37.073 14.5781H42.6681L43.6415 19.1202H47.4196L43.1656 1.34161Z" fill="white"/>
<path d="M27.0312 1.65204L37.3634 9.00323L37.1111 10.9024L27.0312 1.65204Z" fill="white"/>
</svg>
