<svg width="110" height="81" viewBox="0 0 110 81" fill="none" xmlns="http://www.w3.org/2000/svg">
<path d="M71.002 69.359C63.1986 72.3679 55.3952 71.8012 52.6641 68.2257C53.5224 68.2257 54.3808 68.2257 55.2587 68.2257C60.6331 68.3909 65.9781 67.3723 70.9165 65.242C75.8548 63.1118 80.2659 59.9217 83.8385 55.8971C84.4628 60.4495 79.0785 66.2915 71.002 69.359Z" fill="black"/>
<path d="M72.6202 75.0648C66.6116 77.468 60.6811 77.0186 58.5156 74.1465C59.1789 74.1465 59.8227 74.1465 60.4665 74.1465C64.6411 74.2451 68.7844 73.4026 72.5901 71.6812C76.3957 69.9598 79.7663 67.4035 82.4524 64.2015C83.0377 67.9333 78.8824 72.603 72.6202 75.0648Z" fill="black"/>
<path d="M74.9842 79.4402C70.6729 81.1596 66.42 80.8274 64.8594 78.7759C65.3276 78.7759 65.8153 78.7759 66.2835 78.7759C69.2802 78.8519 72.2555 78.2502 74.9879 77.0155C77.7204 75.7808 80.1397 73.9449 82.0658 71.6444C82.3779 74.3212 79.4517 77.6622 74.9842 79.4402Z" fill="black"/>
<path d="M53.8139 64.2405H53.1116H51.6875V64.0842H52.0387C52.5459 64.1624 53.1116 64.221 53.8139 64.2405Z" fill="#FFA220"/>
<path d="M53.8099 64.2376H53.1075H51.6834C49.3496 64.0942 47.0524 63.5866 44.875 62.7332C47.0916 63.418 49.3734 63.8698 51.6834 64.0813H52.0346C52.5418 64.1594 53.1075 64.2181 53.8099 64.2376Z" fill="#FFA220"/>
<path d="M87.9718 36.3579C87.344 42.131 85.1289 47.6164 81.573 52.2035C78.6235 55.8554 74.9129 58.8178 70.7007 60.8833C66.4885 62.9487 61.8765 64.0673 57.1875 64.1609C61.4757 63.7924 65.6047 62.3598 69.2015 59.9924C72.7982 57.625 75.7494 54.3974 77.7884 50.6013C78.645 49.1286 79.3759 47.5861 79.9733 45.9903C81.4323 42.0352 84.1819 38.6893 87.7767 36.4947L87.9718 36.3579Z" fill="#FFA220"/>
<path d="M75.5811 48.0816C75.269 48.8045 74.9373 49.5275 74.5667 50.2113C70.3138 58.5151 62.8616 63.8881 53.9073 64.2202C53.2635 64.2202 52.6392 64.2202 51.9564 64.0835H51.6053C49.2952 63.872 47.0134 63.4202 44.7968 62.7353C41.1632 61.6595 37.7577 59.9244 34.75 57.6163L36.5253 57.206L37.052 57.0692C45.4887 55.0277 53.7685 52.3833 61.8277 49.1562C65.3977 47.7495 68.8312 46.2646 72.1281 44.7406C72.5995 44.5335 73.1217 44.4714 73.6283 44.5624C74.135 44.6533 74.6032 44.8931 74.9734 45.2513C75.3436 45.6095 75.599 46.0699 75.7072 46.5739C75.8154 47.0779 75.7715 47.6027 75.5811 48.0816Z" fill="#FFA220"/>
<path d="M1.03906 53.4127L1.15646 53.6675C1.15004 53.622 1.15004 53.5758 1.15646 53.5303C1.15646 53.5303 1.05863 53.4519 1.03906 53.4127Z" fill="#FFA220"/>
<path d="M1.11672 50.3707C1.77718 48.7923 2.73042 47.3536 3.92594 46.1309C2.23568 48.0169 1.18413 50.39 0.921644 52.9106C0.798512 52.0936 0.85848 51.2593 1.09721 50.4684L1.11672 50.3707Z" fill="#FFA220"/>
<path d="M93.5881 29.2909L92.0859 30.2092C90.8569 30.9712 89.5499 31.7332 88.1843 32.4952C86.2334 33.5502 84.2826 34.6248 82.3317 35.6799C82.3317 34.5858 82.4683 33.4721 82.4683 32.3389C82.6842 24.0943 79.9122 16.0502 74.6649 9.69398C72.281 6.90525 69.3259 4.6628 66.0002 3.11879C62.6746 1.57478 59.0562 0.765356 55.3906 0.745452C63.7089 0.588694 71.7884 3.53435 78.0594 9.01014C78.2575 9.16162 78.4464 9.32472 78.6251 9.4986C79.0153 9.85029 79.386 10.2411 79.7566 10.6318C83.9179 15.0575 86.6391 20.6445 87.56 26.6532C88.8475 25.9108 90.0571 25.1878 91.2081 24.4649C91.9884 23.9765 92.7297 23.5075 93.4515 23.0191C101.021 18.0173 105.157 13.6016 104.123 10.8858C103.303 8.73661 99.4211 7.95508 93.4515 8.38492C99.8503 7.75969 104.727 8.09185 107.478 9.47907L107.712 9.61583C108.218 9.94365 108.677 10.3379 109.078 10.7881C109.196 10.9319 109.307 11.0819 109.409 11.2375C109.409 11.3938 109.565 11.5501 109.643 11.7064C109.651 11.7779 109.651 11.8499 109.643 11.9214C111.146 15.8681 104.747 22.3548 93.5881 29.2909Z" fill="#FFA220"/>
<path d="M78.6308 32.3313C78.6042 33.8896 78.135 35.408 77.2782 36.709C76.4215 38.01 75.2125 39.0397 73.7928 39.6777C69.5399 41.6315 65.053 43.5854 60.3515 45.3047C51.7798 48.6172 43.0099 51.3905 34.0932 53.6085H33.703C32.8446 53.8234 31.9862 54.0383 31.1279 54.2142C29.5867 54.5659 28.0651 54.8785 26.6019 55.1716L22.8563 55.8359C21.2566 56.0899 19.735 56.3048 18.2718 56.4611C17.2964 56.5588 16.321 56.6565 15.4626 56.7151C12.3275 57.0245 9.16514 56.9128 6.05957 56.3829C5.29329 56.2817 4.53648 56.1184 3.7966 55.8945C3.49239 55.7685 3.19881 55.6183 2.91871 55.4451C2.1704 55.0489 1.55859 54.4361 1.16297 53.6866L1.04591 53.4326C1.03678 53.3941 1.03678 53.354 1.04591 53.3154C1.03833 53.2113 1.03833 53.1069 1.04591 53.0028C1.25534 50.4616 2.26652 48.0529 3.93316 46.1253C5.96084 43.9508 8.20268 41.987 10.6245 40.2638V40.4788C6.25466 43.9957 4.10873 47.0045 4.88907 49.0561C6.00105 51.9673 12.6924 52.358 22.8563 50.6582H23.266C24.6121 50.4237 26.0362 50.1698 27.5188 49.8571C24.2742 44.6374 22.5886 38.5967 22.6612 32.4485V32.2727C22.6612 31.8038 22.6612 31.2958 22.6612 30.8268C22.8082 24.3262 25.0324 18.0441 29.0071 12.9028C32.9818 7.76156 38.4976 4.03204 44.7447 2.26188C47.0694 1.55662 49.4633 1.10463 51.8848 0.913741H52.0214C52.5286 0.913741 53.0553 0.816047 53.582 0.796509H54.0112C57.5181 0.938246 60.9474 1.87317 64.0422 3.5312C67.1369 5.18922 69.8168 7.52734 71.8809 10.3703C76.4587 16.7591 78.8287 24.4701 78.6308 32.3313Z" fill="#FFA220"/>
<path d="M10.6172 40.4077V40.2709C12.451 38.9032 14.5189 37.4769 16.8209 36.0897C14.6702 37.4059 12.5987 38.8477 10.6172 40.4077Z" fill="#FFA220"/>
<path d="M53.8099 64.2376H53.1075H51.6834C49.3496 64.0942 47.0524 63.5866 44.875 62.7332C47.0916 63.418 49.3734 63.8698 51.6834 64.0813H52.0346C52.5418 64.1594 53.1075 64.2181 53.8099 64.2376Z" fill="#FFA220"/>
</svg>
