<svg width="196" height="66" viewBox="0 0 196 66" fill="none" xmlns="http://www.w3.org/2000/svg">
<path d="M117.234 14.2238H127.872V36.1123C127.872 41.2835 130.841 44.2627 136.222 44.2627C141.603 44.2627 144.572 41.2787 144.572 36.1123V14.2238H155.211V36.1698C155.211 41.0699 153.479 44.9598 150.076 47.8921C146.674 50.8243 142.035 52.2607 136.223 52.2607C130.412 52.2607 125.77 50.8243 122.37 47.8921C118.969 44.9598 117.235 41.0747 117.235 36.1698L117.234 14.2238Z" fill="white"/>
<path d="M165.065 48.8463C163.437 47.7184 162.096 46.3131 161.128 44.7183C160.16 43.1235 159.584 41.3737 159.438 39.5784H169.767C170.572 42.9876 173.417 45.0637 178.117 45.0637C182.51 45.0637 185.234 43.3582 185.234 40.7496C185.234 38.7794 183.688 37.5543 180.595 37.0742L171.56 35.5296C164.137 34.2512 160.364 31.1082 160.364 25.0914C160.331 23.4856 160.74 21.8958 161.556 20.4518C162.373 19.0077 163.574 17.7503 165.062 16.7821C168.555 14.4977 172.861 13.3307 177.243 13.4812C187.387 13.4812 193.881 18.0088 194.315 25.4668H184.108C183.552 22.5374 181.139 20.673 177.18 20.673C173.159 20.673 170.684 22.005 170.684 24.4019C170.684 26.1065 171.86 26.9588 174.52 27.384L184.354 28.9823C191.839 30.2071 195.55 33.7235 195.55 39.5823C195.59 41.3329 195.165 43.0684 194.308 44.656C193.45 46.2437 192.182 47.6415 190.602 48.7429C187.019 51.1754 182.542 52.4225 177.984 52.2584C172.726 52.2584 168.398 51.1389 165.055 48.8492" fill="white"/>
<path d="M89.1627 51.5071V22.1607H75.9297V14.2238H113.032V22.1607H99.799V51.5071H89.1627Z" fill="white"/>
<path d="M58.4451 0.252151L46.8124 0.252151V5.17435H35.1806V0.252151L23.5479 0.252151V5.17435H11.9063V0.252151L0.273438 0.252151L0.273438 30.3053H11.9052C11.9419 26.3408 13.7964 22.5495 17.0648 19.7572C20.3332 16.965 24.7504 15.3982 29.3542 15.3982C33.958 15.3982 38.3754 16.965 41.6438 19.7572C44.9121 22.5495 46.7667 26.3408 46.8034 30.3053H58.4328L58.4451 0.252151Z" fill="#A39461"/>
<path d="M58.4531 60.4705H46.8203V65.4799H58.4531V60.4705Z" fill="#A39461"/>
<path d="M11.9218 60.4705H0.289062L0.289063 65.4799H11.9218V60.4705Z" fill="#A39461"/>
<path d="M11.9218 50.4526H0.289062L0.289063 55.4619H11.9218V50.4526Z" fill="#A39461"/>
<path d="M58.4531 50.4526H46.8203V55.4619H58.4531V50.4526Z" fill="#A39461"/>
<path d="M46.8202 45.4439H11.9219V50.4533H46.8202V45.4439Z" fill="#A39461"/>
<path d="M11.9297 55.4615V60.4709H23.5624V65.4793H35.1952V60.4709H46.8279V55.4615H11.9297Z" fill="#A39461"/>
<path d="M58.4531 35.4263H46.8203V45.444H58.4531V35.4263Z" fill="#A39461"/>
<path d="M11.9218 35.4263H0.289062L0.289063 45.444H11.9218V35.4263Z" fill="#A39461"/>
</svg>
