<svg width="114" height="57" viewBox="0 0 114 57" fill="none" xmlns="http://www.w3.org/2000/svg">
<path d="M6.40239 21.8052H14.2468L16.7513 28.799L22.0912 21.8052H30.3136L20.5318 33.6663L26.3442 46H18.0272L15.1446 38.5336L9.23772 46H0.542718L11.3642 33.6663L6.40239 21.8052ZM46.2767 21.3799C47.1746 21.3799 47.6944 21.4272 48.545 21.6162L47.4581 28.0902C43.7722 27.5231 39.0939 29.8859 38.1016 34.9422L35.9278 46H28.3669L33.0925 21.8052H40.6534L39.85 25.7747L39.8973 25.5857C41.5985 22.8921 43.8667 21.3799 46.2767 21.3799Z" fill="white"/>
<path d="M75.6641 35.942H83.1372V30.7437L92.9673 40.5738" stroke="#BFFD44" stroke-width="1.19961"/>
<path d="M75.3359 45.6722H83.1334V50.8705L93.5967 40.4073" stroke="#BFFD44" stroke-width="1.19961"/>
<path d="M80.3457 12.8165L75.5889 35.1212H80.1035L79.8096 36.4972H78.584L78.6211 36.3214H74.1064L79.1719 12.5665H63.292C54.9715 22.1469 49.7476 28.5256 44.918 35.1925L43.0283 44.8253H61.7959L60.6152 50.4425H71.1143L72.252 45.0284H77.9932L77.9834 45.0753L77.7812 46.0245H73.2686L72.2881 50.6896L72.0879 51.6417H59.1367L59.4404 50.1954L60.3174 46.0245H41.5703L41.8516 44.5948L43.7412 34.9611L43.792 34.7023L43.9473 34.4884C48.8072 27.7796 54.0573 21.3701 62.3867 11.7794L62.7451 11.3663H80.6543L80.3457 12.8165ZM63.8438 36.7413H54.1836L54.21 36.5314C57.7535 31.4655 63.0032 24.8764 67.1504 20.2042H67.3604L63.8438 36.7413ZM65.2832 24.2062C62.2572 27.8011 59.0009 31.937 56.3896 35.5411H62.8721L65.2832 24.2062Z" fill="#BFFD44"/>
<path fill-rule="evenodd" clip-rule="evenodd" d="M114.002 21.495H106.441L103.748 35.2936C103.086 38.6487 100.865 40.3027 97.7461 40.3027C95.4778 40.3027 94.6745 39.263 95.3833 35.6244L98.1241 21.495H90.5632L88.3281 32.9041L96.2055 40.7814L91.0301 45.9568C91.9007 46.279 92.9012 46.4459 94.0129 46.4459C98.0769 46.4459 100.676 44.6029 102.377 42.3819L102.424 42.1929L101.716 45.6898H109.276L114.002 21.495Z" fill="white"/>
</svg>
